<?xml version="1.0" encoding="UTF-8" standalone="no"?>
<!-- Created with Inkscape (http://www.inkscape.org/) -->

<svg
   version="1.1"
   id="svg2"
   width="500"
   height="470"
   viewBox="0 0 499.99999 470.00004"
   sodipodi:docname="Corpvs.pdf"
   xmlns:inkscape="http://www.inkscape.org/namespaces/inkscape"
   xmlns:sodipodi="http://sodipodi.sourceforge.net/DTD/sodipodi-0.dtd"
   xmlns="http://www.w3.org/2000/svg"
   xmlns:svg="http://www.w3.org/2000/svg">
  <defs
     id="defs6" />
  <sodipodi:namedview
     id="namedview4"
     pagecolor="#ffffff"
     bordercolor="#000000"
     borderopacity="0.25"
     inkscape:showpageshadow="2"
     inkscape:pageopacity="0.0"
     inkscape:pagecheckerboard="0"
     inkscape:deskcolor="#d1d1d1"
     showgrid="false" />
  <g
     id="g10"
     inkscape:groupmode="layer"
     inkscape:label="Page 1"
     transform="matrix(1.3333333,0,0,1.3333333,0,3.3396326e-5)">
    <g
       id="g12"
       transform="matrix(0.71297767,0,0,0.71297767,-24.94435,-123.36399)">
      <path
         d="m 99.336,559.512 21.719,5.781 c -1.457,5.367 -3.75,9.863 -6.903,13.457 -3.136,3.605 -7.015,6.324 -11.679,8.152 -4.649,1.828 -10.563,2.75 -17.746,2.75 -8.731,0 -15.84,-1.121 -21.383,-3.343 -5.524,-2.239 -10.282,-6.176 -14.293,-11.793 -4.012,-5.618 -6.028,-12.832 -6.028,-21.594 0,-11.695 3.528,-20.688 10.582,-26.981 7.071,-6.273 17.051,-9.421 29.965,-9.421 10.094,0 18.043,1.796 23.828,5.402 5.766,3.609 10.075,9.14 12.872,16.621 l -21.829,4.266 c -0.765,-2.141 -1.566,-3.707 -2.406,-4.696 -1.402,-1.664 -3.097,-2.949 -5.094,-3.836 -2.015,-0.906 -4.257,-1.351 -6.738,-1.351 -5.633,0 -9.945,1.992 -12.93,5.961 -2.257,2.949 -3.394,7.593 -3.394,13.902 0,7.84 1.344,13.195 4.047,16.109 2.707,2.899 6.492,4.348 11.383,4.348 4.738,0 8.32,-1.168 10.746,-3.523 2.425,-2.34 4.179,-5.75 5.281,-10.211 z M 42.637,507.309 H 552.555 V 497.66 H 42.637 Z m 0,102.578 h 509.918 v -9.653 H 42.637 Z m 87.242,-56.75 c 0,-11.547 3.641,-20.539 10.933,-26.965 7.297,-6.442 17.45,-9.652 30.473,-9.652 13.34,0 23.621,3.164 30.84,9.472 7.223,6.324 10.824,15.184 10.824,26.567 0,8.269 -1.566,15.039 -4.722,20.328 -3.153,5.285 -7.723,9.402 -13.676,12.351 -5.969,2.95 -13.395,4.414 -22.297,4.414 -9.031,0 -16.512,-1.269 -22.445,-3.804 -5.914,-2.555 -10.731,-6.571 -14.407,-12.075 -3.675,-5.484 -5.523,-12.367 -5.523,-20.636 z m 24.742,0.047 c 0,7.132 1.512,12.273 4.516,15.386 3.023,3.114 7.129,4.676 12.316,4.676 5.317,0 9.457,-1.531 12.371,-4.578 2.926,-3.063 4.383,-8.531 4.383,-16.453 0,-6.656 -1.531,-11.516 -4.57,-14.578 -3.063,-3.082 -7.184,-4.614 -12.41,-4.614 -5,0 -9.032,1.567 -12.051,4.68 -3.043,3.113 -4.555,8.285 -4.555,15.481 z m 71.984,35.281 v -70.758 h 41.274 c 7.652,0 13.512,0.574 17.539,1.746 4.051,1.152 7.316,3.309 9.797,6.438 2.48,3.148 3.715,6.984 3.715,11.5 0,3.918 -0.953,7.312 -2.856,10.16 -1.886,2.867 -4.496,5.172 -7.836,6.953 -2.109,1.117 -5.019,2.058 -8.695,2.801 2.945,0.871 5.094,1.726 6.437,2.601 0.895,0.574 2.219,1.828 3.954,3.723 1.718,1.894 2.875,3.359 3.453,4.398 l 12.035,20.438 h -27.988 l -13.231,-21.574 c -1.68,-2.801 -3.172,-4.614 -4.476,-5.453 -1.793,-1.086 -3.825,-1.629 -6.082,-1.629 h -2.184 v 28.656 z m 24.856,-42 h 10.465 c 1.121,0 3.324,-0.328 6.57,-0.973 1.641,-0.277 2.984,-1.019 4.012,-2.222 1.043,-1.204 1.566,-2.571 1.566,-4.118 0,-2.289 -0.82,-4.054 -2.461,-5.273 -1.644,-1.234 -4.722,-1.844 -9.258,-1.844 h -10.894 z m 61.777,-28.758 h 41.2 c 8.972,0 15.691,1.875 20.167,5.648 4.461,3.774 6.7,9.141 6.7,16.11 0,7.148 -2.442,12.75 -7.313,16.765 -4.871,4.04 -12.316,6.047 -22.316,6.047 h -13.582 v 26.188 h -24.856 z m 24.856,30.242 h 6.101 c 4.813,0 8.188,-0.742 10.129,-2.211 1.942,-1.465 2.91,-3.343 2.91,-5.633 0,-2.222 -0.839,-4.101 -2.535,-5.648 -1.679,-1.547 -4.851,-2.32 -9.515,-2.32 h -7.09 z m 48.269,-30.242 h 25.879 l 18.063,50.93 17.8,-50.93 h 25.133 l -29.761,70.758 h -26.832 z m 90.66,47.355 23.512,-1.304 c 0.504,3.363 1.547,5.93 3.117,7.676 2.555,2.851 6.192,4.285 10.934,4.285 3.523,0 6.25,-0.727 8.152,-2.192 1.922,-1.465 2.875,-3.164 2.875,-5.089 0,-1.829 -0.898,-3.477 -2.707,-4.926 -1.808,-1.45 -6.027,-2.801 -12.648,-4.102 -10.863,-2.14 -18.586,-5.008 -23.215,-8.582 -4.664,-3.555 -6.996,-8.101 -6.996,-13.637 0,-3.625 1.195,-7.05 3.582,-10.277 2.391,-3.246 5.973,-5.781 10.766,-7.625 4.796,-1.848 11.363,-2.769 19.703,-2.769 10.246,0 18.043,1.679 23.418,5.058 5.375,3.36 8.566,8.711 9.589,16.059 l -23.285,1.218 c -0.613,-3.21 -1.922,-5.55 -3.898,-7 -1.996,-1.464 -4.738,-2.191 -8.231,-2.191 -2.871,0 -5.054,0.543 -6.511,1.613 -1.453,1.071 -2.184,2.391 -2.184,3.938 0,1.121 0.598,2.125 1.774,3.031 1.14,0.938 3.898,1.797 8.265,2.602 10.824,2.058 18.567,4.152 23.231,6.257 4.683,2.11 8.097,4.711 10.226,7.844 2.125,3.113 3.188,6.602 3.188,10.473 0,4.531 -1.414,8.715 -4.254,12.551 -2.852,3.824 -6.809,6.738 -11.922,8.715 -5.094,1.976 -11.512,2.964 -19.274,2.964 -13.621,0 -23.062,-2.32 -28.304,-6.949 -5.242,-4.629 -8.211,-10.512 -8.903,-17.641 z"
         style="fill:#0067af;fill-opacity:1;fill-rule:evenodd;stroke:none"
         id="path14" />
      <path
         d="m 63.422,649.637 c -4.469,0 -8.027,-1.274 -10.684,-3.832 -2.648,-2.547 -3.98,-5.867 -3.98,-9.953 0,-4.329 1.363,-7.805 4.094,-10.414 2.722,-2.606 6.449,-3.915 11.164,-3.915 4.257,0 7.711,1.254 10.343,3.758 2.641,2.512 3.957,5.801 3.957,9.871 0,4.5 -1.351,8.039 -4.054,10.614 -0.836,0.812 -1.766,1.492 -2.797,2.035 l 7.664,5.019 h -3.68 l -5.972,-4.129 c -1.789,0.629 -3.813,0.946 -6.055,0.946 z m 0.219,-26.407 c -3.672,0 -6.696,1.149 -9.075,3.43 -2.367,2.293 -3.558,5.289 -3.558,8.996 0,3.742 1.129,6.727 3.371,8.946 2.25,2.222 5.25,3.328 8.996,3.328 3.906,0 7,-1.102 9.277,-3.293 2.282,-2.196 3.414,-5.25 3.414,-9.172 0,-3.844 -1.113,-6.844 -3.339,-8.996 -2.227,-2.157 -5.25,-3.239 -9.086,-3.239 z m 42.332,15.075 c 0,7.554 -3.746,11.332 -11.243,11.332 -7.121,0 -10.687,-3.637 -10.687,-10.918 v -16.731 h 2.16 v 16.481 c 0,6.308 2.985,9.461 8.949,9.461 5.778,0 8.66,-3.067 8.66,-9.2 v -16.742 h 2.161 z m 7.718,10.867 v -27.184 h 14.766 v 1.711 h -12.586 v 10.91 h 11.684 v 1.707 h -11.684 v 11.149 h 13.317 v 1.707 z m 49.965,0 v -19.301 c 0,-0.465 0.074,-1.797 0.242,-4 h -0.089 c -0.454,1.031 -0.836,1.82 -1.145,2.371 l -11.238,20.93 h -0.707 l -11.285,-20.813 c -0.368,-0.668 -0.715,-1.523 -1.039,-2.558 h -0.106 c 0.098,1.211 0.152,2.422 0.152,3.617 v 19.754 h -2.183 v -27.184 h 2.031 l 11.789,21.895 c 0.074,0.125 0.156,0.301 0.242,0.512 0.09,0.214 0.188,0.429 0.285,0.64 0.149,0.332 0.301,0.699 0.465,1.102 h 0.129 l 0.246,-0.602 c 0.016,-0.051 0.266,-0.652 0.746,-1.805 l 11.618,-21.742 h 1.941 v 27.184 z m 31.145,-25.473 v 25.473 h -2.156 v -25.473 h -9.129 v -1.711 h 20.41 v 1.711 z m 14.496,25.473 v -27.184 h 14.769 v 1.711 H 211.48 v 10.91 h 11.684 v 1.707 H 211.48 v 11.149 h 13.317 v 1.707 z m 49.969,0 v -19.301 c 0,-0.465 0.074,-1.797 0.242,-4 h -0.094 c -0.449,1.031 -0.832,1.82 -1.141,2.371 l -11.242,20.93 h -0.707 l -11.281,-20.813 c -0.371,-0.668 -0.715,-1.523 -1.039,-2.558 h -0.106 c 0.098,1.211 0.149,2.422 0.149,3.617 v 19.754 h -2.18 v -27.184 h 2.031 l 11.79,21.895 c 0.074,0.125 0.156,0.301 0.238,0.512 0.09,0.214 0.191,0.429 0.289,0.64 0.148,0.332 0.301,0.699 0.465,1.102 h 0.129 l 0.246,-0.602 c 0.015,-0.051 0.265,-0.652 0.746,-1.805 l 11.613,-21.742 h 1.941 v 27.184 z m 22.57,0 v -27.184 h 14.766 v 1.711 h -12.586 v 10.91 h 11.683 v 1.707 h -11.683 v 11.149 h 13.316 v 1.707 z m 21.574,-0.973 v -2.129 c 2.266,1.239 4.559,1.86 6.875,1.86 2.469,0 4.34,-0.442 5.621,-1.321 1.278,-0.879 1.918,-2.117 1.918,-3.703 0,-1.39 -0.429,-2.496 -1.289,-3.324 -0.855,-0.832 -2.723,-1.957 -5.586,-3.387 -3.207,-1.605 -5.23,-2.945 -6.082,-4.027 -0.855,-1.078 -1.277,-2.328 -1.277,-3.746 0,-1.922 0.867,-3.555 2.594,-4.891 1.738,-1.34 4.05,-2.008 6.945,-2.008 1.883,0 3.762,0.27 5.641,0.817 v 1.972 c -1.848,-0.718 -3.829,-1.082 -5.926,-1.082 -2.145,0 -3.844,0.469 -5.102,1.407 -1.258,0.929 -1.887,2.121 -1.887,3.558 0,1.391 0.434,2.5 1.293,3.321 0.856,0.82 2.715,1.933 5.567,3.351 2.949,1.445 4.914,2.719 5.89,3.84 0.977,1.117 1.469,2.406 1.469,3.855 0,2.094 -0.844,3.79 -2.523,5.102 -1.684,1.313 -4.059,1.973 -7.129,1.973 -1.094,0 -2.34,-0.141 -3.762,-0.434 -1.414,-0.289 -2.5,-0.621 -3.25,-1.004 z m 31.567,-24.5 v 25.473 h -2.161 v -25.473 h -9.125 v -1.711 h 20.411 v 1.711 z m 35.078,25.473 -3.61,-8.465 h -13.707 l -3.621,8.465 h -2.398 l 11.926,-27.184 h 2.066 l 11.797,27.184 z m -9.696,-22.75 c -0.16,-0.375 -0.293,-0.75 -0.394,-1.113 -0.106,-0.317 -0.215,-0.633 -0.328,-0.95 h -0.09 c -0.25,0.832 -0.492,1.512 -0.731,2.032 l -5.312,12.605 h 12.187 z m -2.492,-6.258 h -1.984 l 5.16,-6.215 h 2.293 z m 31.363,28.035 v -2.129 c 2.266,1.239 4.559,1.86 6.875,1.86 2.469,0 4.344,-0.442 5.622,-1.321 1.277,-0.879 1.918,-2.117 1.918,-3.703 0,-1.39 -0.43,-2.496 -1.286,-3.324 -0.859,-0.832 -2.722,-1.957 -5.589,-3.387 -3.208,-1.605 -5.231,-2.945 -6.079,-4.027 -0.859,-1.078 -1.281,-2.328 -1.281,-3.746 0,-1.922 0.867,-3.555 2.598,-4.891 1.738,-1.34 4.047,-2.008 6.941,-2.008 1.883,0 3.762,0.27 5.645,0.817 v 1.972 c -1.852,-0.718 -3.832,-1.082 -5.93,-1.082 -2.144,0 -3.844,0.469 -5.102,1.407 -1.253,0.929 -1.886,2.121 -1.886,3.558 0,1.391 0.437,2.5 1.293,3.321 0.859,0.82 2.715,1.933 5.566,3.351 2.949,1.445 4.914,2.719 5.891,3.84 0.98,1.117 1.469,2.406 1.469,3.855 0,2.094 -0.844,3.79 -2.52,5.102 -1.687,1.313 -4.063,1.973 -7.133,1.973 -1.09,0 -2.34,-0.141 -3.762,-0.434 -1.414,-0.289 -2.496,-0.621 -3.25,-1.004 z m 23.426,0.973 v -27.184 h 14.77 v 1.711 H 414.84 v 10.91 h 11.683 v 1.707 H 414.84 v 11.149 h 13.312 v 1.707 z m 45.426,-1.902 c -3.258,1.578 -6.621,2.367 -10.074,2.367 -4.305,0 -7.789,-1.254 -10.442,-3.774 -2.664,-2.511 -3.996,-5.812 -3.996,-9.894 0,-4.121 1.438,-7.559 4.305,-10.309 2.863,-2.758 6.687,-4.137 11.48,-4.137 2.774,0 5.477,0.477 8.086,1.442 v 2.047 c -2.867,-1.184 -5.664,-1.782 -8.394,-1.782 -3.981,0 -7.188,1.172 -9.602,3.508 -2.414,2.344 -3.625,5.328 -3.625,8.957 0,3.821 1.137,6.809 3.407,8.977 2.273,2.168 5.328,3.258 9.179,3.258 2.852,0 5.348,-0.532 7.492,-1.594 v -8.969 h -7.449 v -1.711 h 9.633 z m 28.824,-8.965 c 0,7.554 -3.746,11.332 -11.238,11.332 -7.125,0 -10.691,-3.637 -10.691,-10.918 v -16.731 h 2.16 v 16.481 c 0,6.308 2.988,9.461 8.953,9.461 5.777,0 8.66,-3.067 8.66,-9.2 v -16.742 h 2.156 z m 23.903,10.867 -4.215,-7.961 c -0.864,-1.645 -1.735,-2.75 -2.602,-3.313 -0.863,-0.562 -1.957,-0.843 -3.258,-0.843 h -3.925 v 12.117 h -2.184 v -27.184 h 8.773 c 2.79,0 4.989,0.649 6.582,1.942 1.586,1.297 2.383,3.004 2.383,5.125 0,1.961 -0.644,3.601 -1.953,4.914 -1.308,1.312 -3.137,2.156 -5.492,2.539 v 0.074 c 1.25,0.43 2.469,1.734 3.664,3.922 l 4.695,8.668 z m -14,-25.473 v 11.649 h 5.445 c 2.406,0 4.32,-0.543 5.742,-1.633 1.414,-1.086 2.129,-2.582 2.129,-4.477 0,-1.734 -0.641,-3.086 -1.918,-4.07 -1.281,-0.98 -3.109,-1.469 -5.492,-1.469 z m 35.441,25.938 c -4.469,0 -8.027,-1.274 -10.684,-3.832 -2.648,-2.547 -3.98,-5.867 -3.98,-9.953 0,-4.329 1.363,-7.805 4.094,-10.414 2.722,-2.606 6.445,-3.915 11.164,-3.915 4.258,0 7.711,1.254 10.344,3.758 2.64,2.512 3.957,5.801 3.957,9.871 0,4.5 -1.356,8.039 -4.055,10.614 -2.703,2.586 -6.32,3.871 -10.84,3.871 z m 0.215,-26.407 c -3.668,0 -6.695,1.149 -9.07,3.43 -2.372,2.293 -3.559,5.289 -3.559,8.996 0,3.742 1.129,6.727 3.371,8.946 2.25,2.222 5.25,3.328 8.996,3.328 3.906,0 6.996,-1.102 9.277,-3.293 2.278,-2.196 3.415,-5.25 3.415,-9.172 0,-3.844 -1.114,-6.844 -3.34,-8.996 -2.227,-2.157 -5.25,-3.239 -9.09,-3.239 z"
         style="fill:#191812;fill-opacity:1;fill-rule:evenodd;stroke:none"
         id="path16" />
      <path
         d="m 222.773,385.324 -21.246,21.18 c -12.875,-3.063 -26.398,-2.734 -40.363,-0.074 l 21.762,29.148 186.062,-185.746 c 0.52,-0.492 0.289,-1.211 -0.48,-1.316 H 73.242 c -0.89,0.289 -1.14,1.066 -0.387,1.937 l 4.313,5.422 h 275.469 l -24.942,24.863 H 98.602 c -0.891,0.289 -1.141,1.067 -0.391,1.938 l 4.316,5.422 h 217.785 l -25.3,25.222 H 123.648 c -0.89,0.289 -1.14,1.063 -0.39,1.938 l 4.316,5.422 h 160.055 l 2.984,-2.977 -28.261,28.172 H 149.016 c -0.891,0.289 -1.141,1.063 -0.391,1.937 l 4.313,5.422 h 102.031 l -24.813,24.731 h -56.519 c -0.891,0.289 -1.141,1.066 -0.391,1.937 l 4.316,5.422 z M 52.82,237.844 l 2.641,7.84 8.305,-0.399 -6.684,4.918 2.945,7.731 -6.769,-4.797 -6.488,5.175 2.503,-7.886 -6.957,-4.531 8.317,-0.075 z m 25.016,32.355 2.641,7.84 8.304,-0.398 -6.683,4.921 2.945,7.731 -6.77,-4.801 -6.488,5.18 2.504,-7.887 -6.957,-4.531 8.316,-0.074 z m 25.766,32.5 2.64,7.84 8.305,-0.398 -6.684,4.918 2.946,7.73 -6.77,-4.797 -6.488,5.176 2.504,-7.887 -6.957,-4.531 8.316,-0.074 z m 25.171,32.004 2.641,7.84 8.305,-0.398 -6.684,4.917 2.945,7.731 -6.769,-4.797 -6.488,5.176 2.504,-7.887 -6.957,-4.531 8.316,-0.074 z m 25.497,32.895 2.636,7.84 8.309,-0.399 -6.688,4.918 2.946,7.731 -6.77,-4.797 -6.484,5.175 2.5,-7.886 -6.957,-4.532 8.316,-0.074 z m 46.585,86.019 23.317,21.574 29.055,-27.492 45.929,-93.101 z"
         style="fill:#0067af;fill-opacity:1;fill-rule:evenodd;stroke:none"
         id="path18" />
      <path
         d="m 271.352,492.738 c -13.985,-4.211 -26.313,-10.386 -37.129,-18.054 l 24.297,-23.965 61.648,-125.016 -117.57,117.051 c -2.375,-3.356 -4.618,-6.809 -6.715,-10.348 L 384.281,243.613 c 0.504,-0.711 0.239,-1.613 -0.652,-1.629 l -191.918,-0.257 c 74.227,-79.309 186.887,-63.02 246.562,9.125 57.368,69.355 39.805,200.593 -73.988,241.886 z M 386.734,333.711 c -1.41,-0.012 6.942,6.098 7.457,6.543 3.817,2.805 10.036,-4.434 -1.316,-5.797 -1.641,-0.195 -3.758,-0.727 -6.141,-0.746 z m 6.286,35.121 c -1.606,0.836 -2.692,0.199 -2.946,-0.852 -0.844,-3.757 0.68,-4.503 1.906,-5.656 l 19.657,-15.832 c 3.586,-3.273 7.336,-2.5 9.539,-1.637 5.875,3.235 14.492,8.86 19.543,13.379 1.769,1.891 -0.883,5.86 -6.449,4.426 l -14.192,-5.336 c -2.875,-0.929 -4.48,-0.683 -6.848,0.137 z m -81.977,42.328 c -3.918,4.879 -7.785,10.586 -11.633,15.598 -7.75,10.09 -15.164,19.078 -19.269,28.113 -0.211,0.973 0.757,0.688 1.207,0.324 34.578,-28.007 70.797,-53.675 103.343,-82.597 0.93,-0.828 1.481,-1.368 1.098,-1.852 -0.891,-1.137 -2.035,-4.695 -1.609,-7.008 0.379,-2.074 1.84,-3.207 4.035,-5.043 2.726,-2.285 7.23,-5.578 13.957,-10.203 13.883,-9.531 16.48,-13.472 2.16,-18.414 -16.863,-5.82 -53.602,-7.73 -61.777,-7.266 0.804,3.813 1.609,7.626 2.414,11.438 -3.91,-1.07 -11.172,-4.207 -13.258,-4.195 -0.074,4.027 6.047,12.859 9.07,19.293 -5.484,-0.938 -10.965,-1.641 -16.449,-1.332 1.602,6.398 4.402,12.285 8.535,17.601 -7.851,4.879 -16.988,12.473 -26.742,21.391 -0.719,1.722 5.223,1.742 9.281,1.918 0.821,0.035 1.602,-0.071 1.438,0.476 -5.668,6.442 -15.211,13.618 -22.172,19.91 -0.719,0.649 -0.695,1.598 0.098,1.833 5.179,0.273 11.093,-0.258 16.273,0.015 z"
         style="fill:#e30016;fill-opacity:1;fill-rule:evenodd;stroke:none"
         id="path20" />
    </g>
  </g>
</svg>
