<?xml version="1.0" encoding="UTF-8" standalone="no"?>
<!-- Created with Inkscape (http://www.inkscape.org/) -->

<svg
   version="1.1"
   id="svg1099"
   width="600"
   height="400"
   viewBox="0 0 600 400.00002"
   sodipodi:docname="Harley.pdf"
   xmlns:inkscape="http://www.inkscape.org/namespaces/inkscape"
   xmlns:sodipodi="http://sodipodi.sourceforge.net/DTD/sodipodi-0.dtd"
   xmlns="http://www.w3.org/2000/svg"
   xmlns:svg="http://www.w3.org/2000/svg">
  <defs
     id="defs1103" />
  <sodipodi:namedview
     id="namedview1101"
     pagecolor="#ffffff"
     bordercolor="#000000"
     borderopacity="0.25"
     inkscape:showpageshadow="2"
     inkscape:pageopacity="0.0"
     inkscape:pagecheckerboard="0"
     inkscape:deskcolor="#d1d1d1"
     showgrid="false" />
  <g
     id="g1107"
     inkscape:groupmode="layer"
     inkscape:label="Page 1"
     transform="matrix(1.3333333,0,0,1.3333333,0,3.3396326e-5)">
    <g
       id="g1109"
       transform="matrix(0.84105494,0,0,0.84105494,-23.90002,-203.78276)">
      <path
         d="m 375.602,468.961 h 9.164 l -0.063,-84.977 c -4.332,-4.058 -64.203,-36.218 -67.789,-40.179 5.184,-3.571 13.602,-10.149 18.856,-12.86 11.175,6.301 22.789,13.375 34.292,19.735 l 34.879,20.496 0.051,97.785 h 9.07 V 249.359 h -8.91 l -0.156,110.446 c -3.469,-0.696 -16.066,-8.887 -20.355,-11.086 l -0.067,-99.36 h -8.871 l -0.027,93.653 c -3.781,-1.332 -29.61,-16.285 -31.274,-18.223 4.278,-4.199 10.082,-6.211 13.828,-10.641 l -5.273,-6.515 -22.523,15.601 c -7.028,5.278 -15.52,10.266 -22.352,15.586 -4.785,-1.5 -42.828,-25.14 -48.695,-27.648 l -4.817,7.93 30.391,17.351 c 9.91,5.848 19.957,11.551 30.285,17.477 19.805,11.359 40.266,23.84 60.309,35.023 z"
         style="fill:#c0801c;fill-opacity:1;fill-rule:evenodd;stroke:none"
         id="path1111" />
      <path
         d="m 204.965,468.961 h 9.055 l -0.028,-111.184 c 6.731,2.965 13.543,7.555 20.184,11.348 l 0.094,99.836 h 9.144 l 0.137,-94.16 c 4.879,2.043 10.429,5.933 15.422,8.699 4.304,2.383 11.492,7.324 15.675,8.82 l -14.457,10.305 c 1.547,3.914 2.789,4.437 5.024,7.871 6.941,-3.531 15.476,-10.887 22.89,-15.883 5.129,-3.453 19.477,-14.125 23.297,-15.347 l 49.387,28.75 4.059,-8.438 c -4.66,-1.508 -24.508,-13.754 -31.055,-17.457 -19.473,-11.019 -72.918,-41 -90.398,-52.312 l -0.083,-80.45 h -8.851 l -0.207,86.246 c 4.965,1.567 56.922,33.016 67.027,38.086 -1.828,2.079 -15.093,11.559 -18.023,13.02 -4.86,-1.738 -68.074,-39.031 -69.278,-40.145 l -0.117,-97.207 h -8.898 z"
         style="fill:#c0801c;fill-opacity:1;fill-rule:evenodd;stroke:none"
         id="path1113" />
      <path
         d="m 86.633,592.391 4.515,-16.243 h 2.34 l 4.52,16.243 h -2.149 l -3.539,-14.442 -3.535,14.442 z m 221.844,0 4.441,-16.243 h 2.305 l 4.441,16.243 h -2.113 l -3.481,-14.442 -3.476,14.442 z m 2.476,-3.942 v -1.496 h 6.531 v 1.496 z m 25.883,4.11 c -1.043,0 -1.91,-0.141 -2.606,-0.418 -0.699,-0.278 -1.218,-0.703 -1.562,-1.266 -0.34,-0.566 -0.512,-1.273 -0.512,-2.125 v -0.805 h 1.875 v 0.805 c 0,0.781 0.231,1.367 0.703,1.754 0.465,0.387 1.168,0.582 2.102,0.582 0.918,0 1.605,-0.195 2.055,-0.582 0.457,-0.387 0.683,-0.973 0.683,-1.754 v -0.961 c 0,-0.57 -0.152,-1.043 -0.461,-1.418 -0.312,-0.371 -0.711,-0.687 -1.195,-0.957 -0.492,-0.262 -1.023,-0.512 -1.586,-0.738 -0.5,-0.211 -1,-0.43 -1.484,-0.656 -0.493,-0.227 -0.942,-0.493 -1.344,-0.797 -0.406,-0.305 -0.731,-0.68 -0.973,-1.114 -0.246,-0.433 -0.363,-0.961 -0.363,-1.578 v -0.793 c 0,-1.258 0.391,-2.199 1.16,-2.824 0.777,-0.621 1.942,-0.934 3.496,-0.934 1.516,0 2.649,0.317 3.399,0.95 0.75,0.632 1.125,1.582 1.125,2.851 v 0.848 h -1.879 v -0.848 c 0,-0.777 -0.219,-1.355 -0.653,-1.746 -0.437,-0.383 -1.101,-0.578 -1.992,-0.578 -0.926,0 -1.621,0.184 -2.086,0.555 -0.461,0.367 -0.691,0.922 -0.691,1.656 v 0.793 c 0,0.574 0.18,1.047 0.543,1.406 0.359,0.367 0.82,0.676 1.387,0.938 0.562,0.254 1.148,0.507 1.757,0.765 0.473,0.192 0.922,0.403 1.364,0.637 0.441,0.227 0.84,0.5 1.199,0.813 0.355,0.312 0.637,0.687 0.844,1.128 0.207,0.442 0.312,0.965 0.312,1.575 v 1.027 c 0,1.273 -0.387,2.227 -1.152,2.859 -0.77,0.633 -1.918,0.95 -3.465,0.95 z m 22.582,0 c -1.043,0 -1.91,-0.141 -2.606,-0.418 -0.699,-0.278 -1.218,-0.703 -1.562,-1.266 -0.344,-0.566 -0.516,-1.273 -0.516,-2.125 v -0.805 h 1.879 v 0.805 c 0,0.781 0.231,1.367 0.699,1.754 0.465,0.387 1.172,0.582 2.106,0.582 0.918,0 1.602,-0.195 2.055,-0.582 0.457,-0.387 0.683,-0.973 0.683,-1.754 v -0.961 c 0,-0.57 -0.156,-1.043 -0.461,-1.418 -0.312,-0.371 -0.711,-0.687 -1.199,-0.957 -0.492,-0.262 -1.019,-0.512 -1.582,-0.738 -0.504,-0.211 -1,-0.43 -1.488,-0.656 -0.492,-0.227 -0.938,-0.493 -1.34,-0.797 -0.406,-0.305 -0.731,-0.68 -0.977,-1.114 -0.242,-0.433 -0.359,-0.961 -0.359,-1.578 v -0.793 c 0,-1.258 0.387,-2.199 1.16,-2.824 0.778,-0.621 1.942,-0.934 3.496,-0.934 1.516,0 2.649,0.317 3.399,0.95 0.75,0.632 1.125,1.582 1.125,2.851 v 0.848 h -1.879 v -0.848 c 0,-0.777 -0.223,-1.355 -0.656,-1.746 -0.438,-0.383 -1.102,-0.578 -1.989,-0.578 -0.926,0 -1.621,0.184 -2.086,0.555 -0.461,0.367 -0.691,0.922 -0.691,1.656 v 0.793 c 0,0.574 0.18,1.047 0.539,1.406 0.363,0.367 0.824,0.676 1.387,0.938 0.566,0.254 1.152,0.507 1.761,0.765 0.469,0.192 0.922,0.403 1.364,0.637 0.437,0.227 0.84,0.5 1.195,0.813 0.359,0.312 0.637,0.687 0.848,1.128 0.207,0.442 0.308,0.965 0.308,1.575 v 1.027 c 0,1.273 -0.383,2.227 -1.148,2.859 -0.77,0.633 -1.922,0.95 -3.465,0.95 z m 22.809,0 c -1.008,0 -1.872,-0.161 -2.586,-0.481 -0.711,-0.32 -1.258,-0.785 -1.633,-1.39 -0.375,-0.606 -0.559,-1.344 -0.559,-2.215 v -8.399 c 0,-0.875 0.184,-1.613 0.559,-2.219 0.375,-0.609 0.922,-1.074 1.633,-1.394 0.714,-0.32 1.578,-0.481 2.586,-0.481 1.007,0 1.871,0.161 2.582,0.481 0.711,0.32 1.253,0.785 1.629,1.394 0.374,0.606 0.558,1.344 0.558,2.219 v 8.399 c 0,0.871 -0.184,1.609 -0.558,2.215 -0.376,0.605 -0.918,1.07 -1.629,1.39 -0.711,0.32 -1.575,0.481 -2.582,0.481 z m 0,-1.575 c 0.914,0 1.617,-0.211 2.121,-0.644 0.496,-0.426 0.746,-1.024 0.746,-1.789 v -8.559 c 0,-0.773 -0.25,-1.371 -0.746,-1.801 -0.504,-0.421 -1.207,-0.636 -2.121,-0.636 -0.915,0 -1.618,0.215 -2.122,0.636 -0.5,0.43 -0.753,1.028 -0.753,1.801 v 8.559 c 0,0.765 0.253,1.363 0.753,1.789 0.504,0.433 1.207,0.644 2.122,0.644 z m 22.785,1.575 c -0.942,0 -1.746,-0.164 -2.41,-0.493 -0.668,-0.324 -1.18,-0.796 -1.532,-1.418 -0.351,-0.617 -0.527,-1.363 -0.527,-2.246 v -8.254 c 0,-0.882 0.176,-1.636 0.527,-2.257 0.352,-0.618 0.864,-1.09 1.532,-1.418 0.664,-0.328 1.468,-0.493 2.41,-0.493 0.953,0 1.761,0.165 2.429,0.493 0.664,0.328 1.176,0.804 1.524,1.425 0.347,0.622 0.519,1.372 0.519,2.239 v 0.593 h -1.902 v -0.593 c 0,-0.547 -0.098,-1.016 -0.297,-1.407 -0.199,-0.386 -0.492,-0.683 -0.883,-0.886 -0.386,-0.207 -0.851,-0.305 -1.39,-0.305 -0.801,0 -1.43,0.223 -1.883,0.676 -0.453,0.453 -0.68,1.097 -0.68,1.933 v 8.254 c 0,0.828 0.227,1.469 0.68,1.922 0.453,0.457 1.082,0.684 1.883,0.684 0.824,0 1.457,-0.227 1.902,-0.684 0.441,-0.453 0.668,-1.094 0.668,-1.922 v -0.59 h 1.902 v 0.59 c 0,0.875 -0.172,1.618 -0.519,2.243 -0.348,0.625 -0.86,1.097 -1.524,1.421 -0.668,0.329 -1.476,0.493 -2.429,0.493 z m 19.937,-16.411 v 16.243 h -1.906 v -16.243 z m 12.899,16.243 4.445,-16.243 h 2.301 l 4.441,16.243 h -2.109 l -3.485,-14.442 -3.476,14.442 z m 2.476,-3.942 v -1.496 h 6.531 v 1.496 z m 22.364,3.942 v -1.496 h 4.687 c 0.453,0 0.809,-0.114 1.055,-0.352 0.25,-0.231 0.371,-0.559 0.371,-0.977 v -10.589 c 0,-0.418 -0.121,-0.743 -0.371,-0.977 -0.246,-0.234 -0.602,-0.352 -1.055,-0.352 h -4.687 v -1.5 h 4.605 c 1.094,0 1.937,0.258 2.527,0.758 0.586,0.508 0.887,1.231 0.887,2.16 v 10.411 c 0,0.613 -0.137,1.136 -0.402,1.574 -0.27,0.441 -0.66,0.773 -1.164,1.004 -0.512,0.222 -1.129,0.336 -1.864,0.336 z m -1.032,0 v -16.243 h 1.906 v 16.243 z m 27.371,0.168 c -1.004,0 -1.867,-0.161 -2.582,-0.481 -0.711,-0.32 -1.257,-0.785 -1.633,-1.39 -0.374,-0.606 -0.562,-1.344 -0.562,-2.215 v -8.399 c 0,-0.875 0.188,-1.613 0.562,-2.219 0.376,-0.609 0.922,-1.074 1.633,-1.394 0.715,-0.32 1.578,-0.481 2.582,-0.481 1.012,0 1.875,0.161 2.582,0.481 0.715,0.32 1.258,0.785 1.633,1.394 0.375,0.606 0.559,1.344 0.559,2.219 v 8.399 c 0,0.871 -0.184,1.609 -0.559,2.215 -0.375,0.605 -0.918,1.07 -1.633,1.39 -0.707,0.32 -1.57,0.481 -2.582,0.481 z m 0,-1.575 c 0.918,0 1.621,-0.211 2.125,-0.644 0.496,-0.426 0.743,-1.024 0.743,-1.789 v -8.559 c 0,-0.773 -0.247,-1.371 -0.743,-1.801 -0.504,-0.421 -1.207,-0.636 -2.125,-0.636 -0.91,0 -1.613,0.215 -2.117,0.636 -0.5,0.43 -0.754,1.028 -0.754,1.801 v 8.559 c 0,0.765 0.254,1.363 0.754,1.789 0.504,0.433 1.207,0.644 2.117,0.644 z m 22.871,1.575 c -1.043,0 -1.91,-0.141 -2.605,-0.418 -0.699,-0.278 -1.219,-0.703 -1.563,-1.266 -0.343,-0.566 -0.515,-1.273 -0.515,-2.125 v -0.805 h 1.879 v 0.805 c 0,0.781 0.23,1.367 0.699,1.754 0.465,0.387 1.172,0.582 2.105,0.582 0.918,0 1.602,-0.195 2.055,-0.582 0.457,-0.387 0.68,-0.973 0.68,-1.754 v -0.961 c 0,-0.57 -0.153,-1.043 -0.457,-1.418 -0.313,-0.371 -0.711,-0.687 -1.199,-0.957 -0.493,-0.262 -1.02,-0.512 -1.582,-0.738 -0.504,-0.211 -1,-0.43 -1.489,-0.656 -0.492,-0.227 -0.937,-0.493 -1.34,-0.797 -0.406,-0.305 -0.73,-0.68 -0.976,-1.114 -0.242,-0.433 -0.36,-0.961 -0.36,-1.578 v -0.793 c 0,-1.258 0.387,-2.199 1.161,-2.824 0.777,-0.621 1.941,-0.934 3.496,-0.934 1.515,0 2.648,0.317 3.398,0.95 0.75,0.632 1.125,1.582 1.125,2.851 v 0.848 h -1.879 v -0.848 c 0,-0.777 -0.222,-1.355 -0.656,-1.746 -0.437,-0.383 -1.102,-0.578 -1.988,-0.578 -0.926,0 -1.621,0.184 -2.09,0.555 -0.457,0.367 -0.688,0.922 -0.688,1.656 v 0.793 c 0,0.574 0.18,1.047 0.539,1.406 0.364,0.367 0.825,0.676 1.387,0.938 0.567,0.254 1.153,0.507 1.762,0.765 0.469,0.192 0.922,0.403 1.363,0.637 0.438,0.227 0.84,0.5 1.195,0.813 0.36,0.312 0.637,0.687 0.848,1.128 0.207,0.442 0.309,0.965 0.309,1.575 v 1.027 c 0,1.273 -0.383,2.227 -1.149,2.859 -0.769,0.633 -1.922,0.95 -3.465,0.95 z m -422.75,-4.11 v -1.496 h 6.641 v 1.496 z m 22.735,3.942 v -1.496 h 4.762 c 0.464,0 0.824,-0.114 1.074,-0.352 0.254,-0.231 0.379,-0.559 0.379,-0.977 v -10.589 c 0,-0.418 -0.125,-0.743 -0.379,-0.977 -0.25,-0.234 -0.61,-0.352 -1.074,-0.352 h -4.762 v -1.5 h 4.679 c 1.114,0 1.969,0.258 2.571,0.758 0.597,0.508 0.898,1.231 0.898,2.16 v 10.411 c 0,0.613 -0.136,1.136 -0.406,1.574 -0.277,0.441 -0.672,0.773 -1.184,1.004 -0.519,0.222 -1.148,0.336 -1.89,0.336 z m -1.047,0 v -16.243 h 1.937 v 16.243 z m 25.711,0 -3.957,-16.243 h 2.047 l 3.215,14.414 3.21,-14.414 h 2.043 l -3.949,16.243 z m 23.976,0.168 c -1.023,0 -1.898,-0.161 -2.625,-0.481 -0.722,-0.32 -1.281,-0.785 -1.66,-1.39 -0.383,-0.606 -0.57,-1.344 -0.57,-2.215 v -8.399 c 0,-0.875 0.187,-1.613 0.57,-2.219 0.379,-0.609 0.938,-1.074 1.66,-1.394 0.727,-0.32 1.602,-0.481 2.625,-0.481 1.032,0 1.907,0.161 2.625,0.481 0.727,0.32 1.278,0.785 1.661,1.394 0.379,0.606 0.566,1.344 0.566,2.219 v 8.399 c 0,0.871 -0.187,1.609 -0.566,2.215 -0.383,0.605 -0.934,1.07 -1.661,1.39 -0.718,0.32 -1.593,0.481 -2.625,0.481 z m 0,-1.575 c 0.934,0 1.649,-0.211 2.161,-0.644 0.504,-0.426 0.757,-1.024 0.757,-1.789 v -8.559 c 0,-0.773 -0.253,-1.371 -0.757,-1.801 -0.512,-0.421 -1.227,-0.636 -2.161,-0.636 -0.925,0 -1.64,0.215 -2.152,0.636 -0.508,0.43 -0.766,1.028 -0.766,1.801 v 8.559 c 0,0.765 0.258,1.363 0.766,1.789 0.512,0.433 1.227,0.644 2.152,0.644 z m 23.329,-7.339 h 4.757 v 4.738 c 0,0.887 -0.183,1.637 -0.55,2.262 -0.368,0.625 -0.899,1.097 -1.598,1.421 -0.699,0.329 -1.547,0.493 -2.543,0.493 -1.012,0 -1.875,-0.157 -2.586,-0.465 -0.711,-0.309 -1.254,-0.754 -1.625,-1.336 -0.379,-0.59 -0.562,-1.297 -0.562,-2.129 v -8.481 c 0,-0.882 0.183,-1.636 0.55,-2.257 0.367,-0.618 0.903,-1.09 1.606,-1.418 0.695,-0.328 1.543,-0.493 2.535,-0.493 0.98,0 1.809,0.161 2.496,0.477 0.688,0.316 1.215,0.773 1.578,1.383 0.36,0.601 0.539,1.328 0.539,2.187 v 0.782 h -2.097 v -0.782 c 0,-0.797 -0.215,-1.41 -0.653,-1.843 -0.433,-0.434 -1.054,-0.645 -1.863,-0.645 -0.867,0 -1.539,0.223 -2.027,0.676 -0.481,0.453 -0.727,1.097 -0.727,1.933 v 8.481 c 0,0.75 0.25,1.336 0.746,1.754 0.5,0.414 1.195,0.625 2.09,0.625 0.879,0 1.559,-0.223 2.039,-0.68 0.477,-0.449 0.723,-1.082 0.723,-1.902 v -3.281 h -2.828 z m 17.586,8.746 4.519,-16.243 h 2.34 l 4.515,16.243 h -2.148 l -3.539,-14.442 -3.531,14.442 z m 2.515,-3.942 v -1.496 h 6.645 v 1.496 z m 22.735,3.942 v -1.496 h 4.765 c 0.461,0 0.82,-0.114 1.074,-0.352 0.25,-0.231 0.375,-0.559 0.375,-0.977 v -10.589 c 0,-0.418 -0.125,-0.743 -0.375,-0.977 -0.254,-0.234 -0.613,-0.352 -1.074,-0.352 h -4.765 v -1.5 h 4.683 c 1.109,0 1.969,0.258 2.57,0.758 0.594,0.508 0.899,1.231 0.899,2.16 v 10.411 c 0,0.613 -0.137,1.136 -0.41,1.574 -0.274,0.441 -0.668,0.773 -1.184,1.004 -0.519,0.222 -1.148,0.336 -1.891,0.336 z m -1.047,0 v -16.243 h 1.937 v 16.243 z m 27.824,0.168 c -1.024,0 -1.899,-0.161 -2.625,-0.481 -0.727,-0.32 -1.281,-0.785 -1.66,-1.39 -0.383,-0.606 -0.571,-1.344 -0.571,-2.215 v -8.399 c 0,-0.875 0.188,-1.613 0.571,-2.219 0.379,-0.609 0.933,-1.074 1.66,-1.394 0.726,-0.32 1.601,-0.481 2.625,-0.481 1.027,0 1.906,0.161 2.625,0.481 0.726,0.32 1.277,0.785 1.656,1.394 0.383,0.606 0.57,1.344 0.57,2.219 v 8.399 c 0,0.871 -0.187,1.609 -0.57,2.215 -0.379,0.605 -0.93,1.07 -1.656,1.39 -0.719,0.32 -1.598,0.481 -2.625,0.481 z m 0,-1.575 c 0.933,0 1.648,-0.211 2.156,-0.644 0.508,-0.426 0.758,-1.024 0.758,-1.789 v -8.559 c 0,-0.773 -0.25,-1.371 -0.758,-1.801 -0.508,-0.421 -1.223,-0.636 -2.156,-0.636 -0.926,0 -1.641,0.215 -2.153,0.636 -0.507,0.43 -0.765,1.028 -0.765,1.801 v 8.559 c 0,0.765 0.258,1.363 0.765,1.789 0.512,0.433 1.227,0.644 2.153,0.644 z m 23.25,1.575 c -1.063,0 -1.942,-0.141 -2.649,-0.418 -0.714,-0.278 -1.242,-0.703 -1.589,-1.266 -0.348,-0.566 -0.524,-1.273 -0.524,-2.125 v -0.805 h 1.91 v 0.805 c 0,0.781 0.235,1.367 0.711,1.754 0.473,0.387 1.188,0.582 2.141,0.582 0.93,0 1.629,-0.195 2.086,-0.582 0.465,-0.387 0.695,-0.973 0.695,-1.754 v -0.961 c 0,-0.57 -0.156,-1.043 -0.469,-1.418 -0.316,-0.371 -0.722,-0.687 -1.218,-0.957 -0.5,-0.262 -1.036,-0.512 -1.61,-0.738 -0.508,-0.211 -1.015,-0.43 -1.511,-0.656 -0.5,-0.227 -0.954,-0.493 -1.36,-0.797 -0.414,-0.305 -0.746,-0.68 -0.992,-1.114 -0.25,-0.433 -0.367,-0.961 -0.367,-1.578 v -0.793 c 0,-1.258 0.394,-2.199 1.179,-2.824 0.79,-0.621 1.973,-0.934 3.551,-0.934 1.543,0 2.696,0.317 3.457,0.95 0.762,0.632 1.141,1.582 1.141,2.851 v 0.848 h -1.906 v -0.848 c 0,-0.777 -0.227,-1.355 -0.668,-1.746 -0.446,-0.383 -1.118,-0.578 -2.024,-0.578 -0.941,0 -1.648,0.184 -2.121,0.555 -0.469,0.367 -0.703,0.922 -0.703,1.656 v 0.793 c 0,0.574 0.184,1.047 0.555,1.406 0.363,0.367 0.832,0.676 1.406,0.938 0.574,0.254 1.172,0.507 1.789,0.765 0.48,0.192 0.937,0.403 1.387,0.637 0.445,0.227 0.855,0.5 1.218,0.813 0.36,0.312 0.645,0.687 0.856,1.128 0.211,0.442 0.316,0.965 0.316,1.575 v 1.027 c 0,1.273 -0.386,2.227 -1.168,2.859 -0.781,0.633 -1.953,0.95 -3.519,0.95 z"
         style="fill:#ffffff;fill-opacity:1;fill-rule:evenodd;stroke:none"
         id="path1115" />
      <path
         d="m 48.633,526.875 h 26.926 v -22.254 h 6.316 v 51.348 H 75.559 V 532.535 H 48.633 v 23.434 h -6.317 v -51.348 h 6.317 z m 323.191,29.094 h -2.875 l -12.89,-30.668 c -1.782,-4.219 -3.571,-8.805 -5.364,-13.774 h -0.3 c 0.355,7.145 0.539,13.684 0.539,19.606 v 24.836 h -6.278 v -51.348 h 9.008 l 12.066,29.055 c 1.375,3.316 2.903,7.328 4.563,12.008 h 0.184 c 1.843,-5.192 3.363,-9.204 4.562,-12.008 l 12.07,-29.055 h 9.008 v 51.348 h -6.277 v -24.836 c 0,-5.805 0.183,-12.344 0.539,-19.606 h -0.301 c -1.898,5.243 -3.676,9.844 -5.363,13.774 z M 526.719,518.16 c 0,1.508 0.285,2.75 0.867,3.735 0.582,0.996 1.352,1.808 2.332,2.449 0.98,0.629 2.109,1.168 3.402,1.574 1.289,0.406 2.641,0.785 4.032,1.152 1.886,0.485 3.734,1.024 5.558,1.614 1.824,0.589 3.438,1.402 4.867,2.437 1.426,1.035 2.578,2.387 3.461,4.051 0.883,1.664 1.317,3.801 1.317,6.422 0,2.66 -0.473,4.953 -1.43,6.894 -0.953,1.926 -2.281,3.512 -3.969,4.754 -1.687,1.246 -3.676,2.164 -5.98,2.766 -2.309,0.605 -4.828,0.906 -7.559,0.906 -1.265,0 -2.558,-0.078 -3.871,-0.25 -1.328,-0.168 -2.582,-0.391 -3.785,-0.668 -1.203,-0.273 -2.285,-0.601 -3.254,-0.957 -0.965,-0.351 -1.734,-0.719 -2.293,-1.074 v -5.699 c 0.867,0.457 1.848,0.863 2.941,1.242 1.09,0.383 2.219,0.707 3.387,0.972 1.168,0.262 2.332,0.469 3.524,0.629 1.191,0.145 2.308,0.223 3.351,0.223 1.688,0 3.313,-0.16 4.852,-0.461 1.539,-0.312 2.89,-0.824 4.047,-1.531 1.164,-0.723 2.082,-1.703 2.765,-2.938 0.684,-1.246 1.02,-2.793 1.02,-4.664 0,-1.535 -0.301,-2.804 -0.895,-3.8 -0.582,-0.997 -1.379,-1.825 -2.371,-2.477 -0.992,-0.656 -2.133,-1.18 -3.426,-1.602 -1.3,-0.406 -2.656,-0.785 -4.082,-1.14 -1.898,-0.469 -3.734,-0.981 -5.535,-1.559 -1.812,-0.574 -3.41,-1.375 -4.828,-2.398 -1.414,-1.024 -2.555,-2.344 -3.41,-3.957 -0.856,-1.614 -1.293,-3.684 -1.293,-6.188 0,-2.605 0.449,-4.859 1.355,-6.734 0.907,-1.887 2.133,-3.449 3.672,-4.68 1.551,-1.219 3.324,-2.137 5.336,-2.726 2.012,-0.59 4.156,-0.879 6.442,-0.879 2.593,0 5,0.261 7.246,0.789 2.246,0.523 4.293,1.218 6.168,2.054 v 5.809 c -2.012,-0.891 -4.094,-1.625 -6.242,-2.191 -2.149,-0.563 -4.442,-0.852 -6.887,-0.875 -1.836,0 -3.438,0.207 -4.805,0.628 -1.351,0.418 -2.48,1.02 -3.375,1.809 -0.891,0.774 -1.562,1.715 -1.996,2.828 -0.434,1.117 -0.656,2.348 -0.656,3.711 z m -61.805,15.086 c 2.981,4.531 5.922,9.188 8.836,13.969 h 0.211 c -0.309,-4.981 -0.469,-10.078 -0.469,-15.27 v -27.324 h 5.992 v 51.348 h -5.957 l -19.062,-28.621 c -3.285,-4.996 -6.227,-9.649 -8.809,-13.973 h -0.222 c 0.308,4.68 0.468,10.145 0.468,16.383 v 26.211 h -5.953 v -51.348 h 5.879 z m 29.609,17.063 h 22.454 v 5.66 H 489.16 v -51.348 h 26.598 v 5.66 h -21.235 v 16.594 h 18.887 v 5.66 h -18.887 z m -83.632,0 h 22.453 v 5.66 h -27.817 v -51.348 h 26.598 v 5.66 h -21.234 v 16.594 h 18.89 v 5.66 h -18.89 z m -81.102,5.66 v -51.348 h 5.359 v 51.348 z m -23.801,-30.547 12.11,-20.801 h 5.922 l -14.86,25.293 15.539,26.055 h -5.988 l -12.82,-21.754 h -0.137 l -12.824,21.754 h -6.055 l 15.672,-26.211 -14.723,-25.137 h 5.856 l 12.175,20.801 z m -50.769,9.906 v 20.641 h -5.364 v -20.641 l -15.937,-30.707 h 5.828 l 12.715,24.953 h 0.156 l 12.711,-24.953 h 5.832 z m -45.981,14.981 h 22.453 v 5.66 h -27.816 v -51.348 h 26.598 v 5.66 h -21.235 v 16.594 h 18.891 v 5.66 h -18.891 z m -30.621,-45.688 v 45.688 h 22.301 v 5.66 h -27.895 v -51.348 z m -36.961,30.117 v 21.231 h -5.594 v -51.348 h 11.856 c 2.004,0 3.707,0.078 5.105,0.25 1.399,0.168 2.68,0.43 3.836,0.785 3.192,0.969 5.629,2.633 7.309,4.981 1.687,2.332 2.527,5.269 2.527,8.769 0,2.082 -0.289,3.93 -0.886,5.567 -0.594,1.64 -1.422,3.07 -2.493,4.273 -1.074,1.207 -2.355,2.192 -3.847,2.949 -1.492,0.774 -3.149,1.336 -4.965,1.692 v 0.156 l 13.519,21.926 h -5.593 l -14.059,-21.231 z m 0,-24.457 v 18.797 h 5.504 c 1.703,0 3.16,-0.066 4.371,-0.199 1.199,-0.117 2.285,-0.352 3.242,-0.68 1.934,-0.668 3.426,-1.73 4.473,-3.183 1.051,-1.457 1.574,-3.371 1.574,-5.715 -0.023,-2.203 -0.523,-3.973 -1.504,-5.321 -0.976,-1.339 -2.332,-2.308 -4.066,-2.898 -0.816,-0.273 -1.797,-0.484 -2.938,-0.602 -1.132,-0.132 -2.578,-0.199 -4.335,-0.199 z m -56.847,45.688 20.964,-51.348 h 5.446 l 21.043,51.348 h -6.828 l -6.055,-15.41 H 97.641 l -6.082,15.41 z m 23.648,-43.407 c -2.316,6.399 -4.527,12.215 -6.621,17.446 l -1.984,4.887 h 17.25 l -1.989,-4.899 c -2.117,-5.324 -4.277,-11.129 -6.5,-17.434 z"
         style="fill:#ffffff;fill-opacity:1;fill-rule:evenodd;stroke:none"
         id="path1117" />
    </g>
  </g>
</svg>
