<?xml version="1.0" encoding="UTF-8" standalone="no"?>
<!-- Created with Inkscape (http://www.inkscape.org/) -->

<svg
   version="1.1"
   id="svg2"
   width="1290.9189"
   height="417.61838"
   viewBox="0 0 1290.919 417.61837"
   sodipodi:docname="logo-indaiaNOVO.pdf"
   xmlns:inkscape="http://www.inkscape.org/namespaces/inkscape"
   xmlns:sodipodi="http://sodipodi.sourceforge.net/DTD/sodipodi-0.dtd"
   xmlns="http://www.w3.org/2000/svg"
   xmlns:svg="http://www.w3.org/2000/svg">
  <defs
     id="defs6">
    <clipPath
       clipPathUnits="userSpaceOnUse"
       id="clipPath18">
      <path
         d="M 0,628 H 1348 V 0 H 0 Z"
         id="path16" />
    </clipPath>
  </defs>
  <sodipodi:namedview
     id="namedview4"
     pagecolor="#e3e3e3"
     bordercolor="#000000"
     borderopacity="0.25"
     inkscape:showpageshadow="2"
     inkscape:pageopacity="0"
     inkscape:pagecheckerboard="0"
     inkscape:deskcolor="#949494"
     showgrid="false" />
  <g
     id="g10"
     inkscape:groupmode="layer"
     inkscape:label="Page 1"
     transform="matrix(1.3333333,0,0,-1.3333333,-22.348826,816.86539)">
    <g
       id="g12"
       transform="translate(-181.82095,143.54286)">
      <g
         id="g14"
         clip-path="url(#clipPath18)">
        <g
           id="g20"
           transform="translate(198.59314,169.0957)"
           style="fill:#ffffff"
           inkscape:export-filename="..\Projetos\johnsonpeixoto.github.io\img\sponsors\indaia.svg"
           inkscape:export-xdpi="8.0456228"
           inkscape:export-ydpi="8.0456228">
          <path
             d="m 0,0 v 162.336 c -0.23,7.121 3.293,10.566 10.584,10.336 h 29.07 c 7.045,0.23 10.522,-3.215 10.414,-10.336 V 0 C 50.176,-7.141 46.699,-10.57 39.654,-10.355 H 10.584 C 3.293,-10.57 -0.23,-7.141 0,0 m 25.486,237.43 c 6.571,0 12.375,-2.496 17.399,-7.504 5.023,-4.992 7.537,-10.813 7.537,-17.461 0,-7.031 -2.514,-12.988 -7.537,-17.86 -4.916,-4.871 -10.768,-7.304 -17.582,-7.304 -7.168,0 -13.157,2.433 -17.951,7.304 C 2.451,199.477 0,205.434 0,212.465 c 0,6.769 2.451,12.59 7.352,17.461 4.916,5.008 10.951,7.504 18.134,7.504"
             style="fill:#ffffff;fill-opacity:1;fill-rule:nonzero;stroke:none"
             id="path22" />
        </g>
        <g
           id="g24"
           transform="translate(327.77084,334.4473)"
           style="fill:#ffffff">
          <path
             d="m 0,0 c 10.658,6.555 23.096,9.832 37.324,9.832 27.033,0 47.74,-7.992 62.092,-23.906 12.561,-13.922 18.824,-32.824 18.824,-56.731 v -94.547 c 0.244,-7.14 -3.232,-10.585 -10.416,-10.355 H 78.77 c -7.182,-0.23 -10.629,3.215 -10.399,10.355 v 93.84 c 0,8.778 -3.125,16.282 -9.328,22.469 -6.234,6.172 -13.814,9.281 -22.791,9.281 -8.5,0 -15.791,-2.816 -21.902,-8.39 -6.571,-6.067 -9.864,-13.145 -9.864,-21.231 v -95.969 c 0.108,-7.14 -3.353,-10.585 -10.398,-10.355 h -29.07 c -7.291,-0.23 -10.831,3.215 -10.584,10.355 V -3.371 c -0.247,7.125 3.293,10.57 10.584,10.34 H -8.439 C -3.156,7.078 -0.354,4.75 0,0"
             style="fill:#ffffff;fill-opacity:1;fill-rule:nonzero;stroke:none"
             id="path26" />
        </g>
        <g
           id="g28"
           transform="translate(607.45834,332.6699)"
           style="fill:#ffffff">
          <path
             d="m 0,0 v 71.527 c -0.121,7.137 3.34,10.567 10.416,10.356 h 29.055 c 7.304,0.211 10.828,-3.219 10.584,-10.356 v -235.089 c 0.244,-7.137 -3.28,-10.583 -10.584,-10.352 H 13.096 c -6.938,-0.352 -10.461,2.68 -10.584,9.098 v 1.054 c -16.387,-8.668 -32.364,-13.015 -47.908,-13.015 -25.946,0 -48.262,9.297 -66.917,27.828 -18.671,18.547 -27.998,40.664 -27.998,66.363 0,25.688 9.327,47.805 27.998,66.352 18.655,18.562 40.971,27.828 66.917,27.828 C -29.852,11.594 -14.719,7.734 0,0 m -45.918,-37.277 c -12.451,0 -22.975,-4.352 -31.598,-13.02 -8.836,-8.683 -13.277,-19.453 -13.277,-32.289 0,-12.848 4.441,-23.617 13.277,-32.285 8.623,-8.684 19.27,-13.02 31.936,-13.02 12.697,0 23.387,4.336 32.117,13.02 8.746,8.668 13.096,19.437 13.096,32.285 0,12.715 -4.35,23.496 -13.096,32.289 -8.607,8.668 -19.42,13.02 -32.455,13.02"
             style="fill:#ffffff;fill-opacity:1;fill-rule:nonzero;stroke:none"
             id="path30" />
        </g>
        <g
           id="g32"
           transform="translate(825.40764,330.5254)"
           style="fill:#ffffff">
          <path
             d="m 0,0 v 1.609 c 0,6.418 3.463,9.512 10.416,9.282 h 24.75 C 42.35,11.121 45.811,7.676 45.582,0.539 V -161.43 C 45.811,-168.57 42.35,-172 35.166,-171.754 H 10.416 C 3.463,-172 0,-168.906 0,-162.504 v 1.258 c -15.193,-8.914 -31.566,-13.387 -49.164,-13.387 -26.191,0 -48.629,9.281 -67.27,27.844 -18.67,18.547 -27.998,40.664 -27.998,66.348 0,25.671 9.328,47.82 27.998,66.367 18.641,18.531 40.971,27.828 66.918,27.828 C -32.424,13.754 -15.896,9.16 0,0 m -50.068,-35.133 c -12.299,0 -22.836,-4.336 -31.567,-13.019 -8.73,-8.668 -13.095,-19.438 -13.095,-32.289 0,-12.832 4.365,-23.618 13.095,-32.286 8.731,-8.699 19.436,-13.019 32.119,-13.019 12.543,0 23.204,4.32 31.934,13.019 8.73,8.668 13.096,19.454 13.096,32.286 0,12.714 -4.366,23.48 -13.096,32.289 -8.607,8.683 -19.436,13.019 -32.486,13.019"
             style="fill:#ffffff;fill-opacity:1;fill-rule:nonzero;stroke:none"
             id="path34" />
        </g>
        <g
           id="g36"
           transform="translate(903.04624,169.0957)"
           style="fill:#ffffff">
          <path
             d="m 0,0 v 162.336 c -0.23,7.121 3.293,10.566 10.6,10.336 h 29.054 c 7.061,0.23 10.522,-3.215 10.414,-10.336 V 0 C 50.176,-7.141 46.715,-10.57 39.654,-10.355 H 10.6 C 3.293,-10.57 -0.23,-7.141 0,0 m 25.486,237.43 c 6.571,0 12.375,-2.496 17.399,-7.504 5.039,-4.992 7.551,-10.813 7.551,-17.461 0,-7.031 -2.512,-12.988 -7.551,-17.86 -4.916,-4.871 -10.752,-7.304 -17.582,-7.304 -7.168,0 -13.157,2.433 -17.936,7.304 C 2.451,199.477 0,205.434 0,212.465 c 0,6.769 2.451,12.59 7.367,17.461 4.901,5.008 10.936,7.504 18.119,7.504"
             style="fill:#ffffff;fill-opacity:1;fill-rule:nonzero;stroke:none"
             id="path38" />
        </g>
        <g
           id="g40"
           transform="translate(1121.1791,330.5254)"
           style="fill:#ffffff">
          <path
             d="m 0,0 v 1.609 c 0,6.418 3.461,9.512 10.416,9.282 h 24.75 C 42.35,11.121 45.811,7.676 45.582,0.539 V -161.43 C 45.811,-168.57 42.35,-172 35.166,-171.754 H 10.416 C 3.461,-172 0,-168.906 0,-162.504 v 1.258 c -15.193,-8.914 -31.566,-13.387 -49.164,-13.387 -26.191,0 -48.629,9.281 -67.27,27.844 -18.67,18.547 -27.998,40.664 -27.998,66.348 0,25.671 9.328,47.82 27.998,66.367 18.641,18.531 40.971,27.828 66.916,27.828 C -32.424,13.754 -15.898,9.16 0,0 m -50.068,-35.133 c -12.299,0 -22.821,-4.336 -31.567,-13.019 -8.73,-8.668 -13.095,-19.438 -13.095,-32.289 0,-12.832 4.365,-23.618 13.095,-32.286 8.746,-8.699 19.436,-13.019 32.117,-13.019 12.545,0 23.206,4.32 31.936,13.019 8.715,8.668 13.094,19.454 13.094,32.286 0,12.714 -4.379,23.48 -13.094,32.289 -8.609,8.683 -19.453,13.019 -32.486,13.019"
             style="fill:#ffffff;fill-opacity:1;fill-rule:nonzero;stroke:none"
             id="path42" />
        </g>
        <g
           id="g44"
           transform="translate(1112.0209,402.8027)"
           style="fill:#00b1ff;fill-opacity:1">
          <path
             d="m 0,0 c 0,-22.102 -18.027,-40.02 -40.268,-40.02 -22.222,0 -40.265,17.918 -40.265,40.02 0,18.211 27.293,53.012 36.943,64.742 1.715,2.082 4.932,2.082 6.662,0 C -27.279,53.012 0,18.211 0,0"
             style="fill:#00b1ff;fill-opacity:1;fill-rule:nonzero;stroke:none"
             id="path46" />
        </g>
      </g>
    </g>
  </g>
</svg>
