<?xml version="1.0" encoding="UTF-8" standalone="no"?>
<!-- Created with Inkscape (http://www.inkscape.org/) -->

<svg
   version="1.1"
   id="svg2367"
   width="408"
   height="460"
   viewBox="0 0 408 460.00002"
   xmlns="http://www.w3.org/2000/svg"
   xmlns:svg="http://www.w3.org/2000/svg">
  <defs
     id="defs2371" />
  <g
     id="g2375"
     transform="matrix(1.3333333,0,0,1.3333333,0,3.3396326e-5)">
    <g
       id="g2377">
      <path
         d="m 151.41404,33.110279 c -36.117,17.969 -78.253996,30.629 -125.397993,38.867 2.371,118.524001 43.046997,201.426001 125.397993,246.180001 82.356,-44.754 123.032,-127.656 125.403,-246.180001 -47.149,-8.238 -89.282,-20.898 -125.403,-38.867 z"
         style="fill:#9f0b0b;fill-opacity:1;fill-rule:evenodd;stroke:#1b1918;stroke-width:0.5669;stroke-linecap:butt;stroke-linejoin:miter;stroke-miterlimit:4;stroke-dasharray:none;stroke-opacity:1"
         id="path2379" />
      <path
         d="m 151.41404,337.08328 c -8.207,-5.407 -149.5899934,-58.571 -140.905993,-280.231001 53.464997,-6.812 101.581993,-20.062 140.905993,-42.719 39.328,22.657 87.446,35.907 140.907,42.719 8.687,221.660001 -132.696,274.824001 -140.907,280.231001 z m 0,-303.973001 c -36.117,17.969 -78.253996,30.629 -125.397993,38.867 2.371,118.524001 43.046997,201.426001 125.397993,246.180001 82.356,-44.754 123.032,-127.656 125.403,-246.180001 -47.149,-8.238 -89.282,-20.898 -125.403,-38.867 z"
         style="fill:#e5c36e;fill-opacity:1;fill-rule:evenodd;stroke:none"
         id="path2381" />
      <path
         d="m 151.41004,323.97328 c 1.957,0 3.582,1.625 3.547,3.649 -0.039,2.023 -1.66,3.668 -3.547,3.648 h -0.054 c -1.93,-0.031 -3.489,-1.652 -3.489,-3.648 0,-2.008 1.579,-3.637 3.524,-3.649 z M 33.809047,180.05928 c -1.957,0 -3.582,1.625 -3.543,3.645 0.039,2.023 1.656,3.668 3.543,3.648 h 0.055 c 1.933,-0.031 3.488,-1.652 3.488,-3.648 0,-2.004 -1.574,-3.633 -3.524,-3.645 z m -13.098,-55.383 c -1.957,0 -3.578,1.625 -3.543,3.649 0.039,2.019 1.66,3.664 3.543,3.644 h 0.059 c 1.929,-0.031 3.488,-1.652 3.488,-3.644 0,-2.008 -1.578,-3.637 -3.523,-3.649 z m -1.969,-62.504001 c -1.957,0 -3.582,1.625 -3.543,3.649 0.039,2.019 1.657,3.664 3.543,3.644 h 0.059 c 1.93,-0.031 3.484,-1.652 3.484,-3.644 0,-2.008 -1.574,-3.637 -3.519,-3.649 z m 70.195997,-16.765 c -1.957,0 -3.582,1.625 -3.543,3.648 0.039,2.02 1.656,3.664 3.543,3.645 h 0.054 c 1.934,-0.031 3.489,-1.653 3.489,-3.645 0,-2.008 -1.575,-3.636 -3.524,-3.648 z M 269.02404,180.05928 c 1.957,0 3.582,1.625 3.543,3.645 -0.039,2.023 -1.661,3.668 -3.543,3.648 h -0.059 c -1.93,-0.031 -3.484,-1.652 -3.484,-3.648 0,-2.004 1.574,-3.633 3.519,-3.645 z m 13.093,-55.383 c 1.957,0 3.582,1.625 3.543,3.649 -0.039,2.019 -1.656,3.664 -3.543,3.644 h -0.054 c -1.934,-0.031 -3.489,-1.652 -3.489,-3.644 0,-2.008 1.575,-3.637 3.524,-3.649 z m 1.969,-62.504001 c 1.957,0 3.582,1.625 3.543,3.649 -0.035,2.019 -1.656,3.664 -3.543,3.644 h -0.055 c -1.929,-0.031 -3.488,-1.652 -3.488,-3.644 0,-2.008 1.574,-3.637 3.524,-3.649 z m -70.195,-16.765 c 1.957,0 3.582,1.625 3.547,3.648 -0.039,2.02 -1.66,3.664 -3.547,3.645 h -0.055 c -1.93,-0.031 -3.488,-1.653 -3.488,-3.645 0,-2.008 1.578,-3.636 3.523,-3.648 z m -62.477,-23.512 c 1.957,0 3.582,1.625 3.543,3.649 -0.035,2.019 -1.656,3.664 -3.543,3.644 h -0.054 c -1.93,-0.031 -3.489,-1.652 -3.489,-3.644 0,-2.008 1.575,-3.637 3.524,-3.649 z M 93.735044,283.41928 c -1.961,0 -3.582,1.625 -3.547,3.648 0.039,2.02 1.66,3.664 3.547,3.648 l 0.054,-0.004 c 1.93,-0.031 3.489,-1.648 3.489,-3.644 0,-2.008 -1.579,-3.637 -3.524,-3.648 z m 115.362996,0 c 1.957,0 3.582,1.625 3.543,3.648 -0.039,2.02 -1.656,3.664 -3.543,3.648 l -0.055,-0.004 c -1.933,-0.031 -3.488,-1.648 -3.488,-3.644 0,-2.008 1.574,-3.637 3.523,-3.648 z"
         style="fill:#964e29;fill-opacity:1;fill-rule:evenodd;stroke:none"
         id="path2383" />
      <path
         d="m 296.62904,204.17228 c -9.203,36.395 -73.105,27.266 -135.488,5.993 -63.026996,-21.489 -123.554993,-39.262 -151.5469934,2.711 l 7.8670004,49.535 c 8.754,-41.024 86.085993,-27.387 127.636993,-12.328 57.769,20.937 116.199,38.656 139.98,7.507 z"
         style="fill:#dbece5;fill-opacity:1;fill-rule:evenodd;stroke:none"
         id="path2385" />
      <path
         d="m 17.461047,262.41128 c 7.688,14 24.043,15.902 49.144997,5.605 -6.895,-9.101 -13.593997,-19.308 -19.827997,-30.742 -15.086,3.32 -26.293,10.965 -29.317,25.137 z m 278.577993,-56.219 c 0.199,-0.664 0.399,-1.336 0.59,-2.02 -2.551,-6.898 -11.457,-11.746 -20.746,-13.144 -4.441,13.613 -9.582,26.027 -15.191,37.34 17.906,-1.692 30.871,-8.383 35.347,-22.176 z"
         style="fill:#433c35;fill-opacity:1;fill-rule:evenodd;stroke:none"
         id="path2387" />
      <path
         d="m 46.160047,224.00428 -0.593,-2.808 c 0.226,0.191 0.476,0.355 0.757,0.484 0.286,0.129 0.575,0.235 0.875,0.301 0.297,0.066 0.59,0.106 0.879,0.117 0.286,0.012 0.543,-0.008 0.774,-0.058 0.801,-0.168 1.359,-0.489 1.672,-0.95 0.308,-0.468 0.386,-1.066 0.234,-1.789 -0.082,-0.39 -0.223,-0.714 -0.414,-0.972 -0.188,-0.262 -0.426,-0.485 -0.715,-0.668 -0.285,-0.192 -0.609,-0.36 -0.973,-0.504 -0.367,-0.153 -0.753,-0.309 -1.168,-0.469 -0.453,-0.215 -0.878,-0.437 -1.281,-0.672 -0.398,-0.234 -0.765,-0.512 -1.093,-0.828 -0.329,-0.32 -0.61,-0.695 -0.852,-1.133 -0.242,-0.433 -0.43,-0.965 -0.563,-1.594 -0.164,-0.769 -0.183,-1.468 -0.058,-2.085 0.117,-0.625 0.34,-1.161 0.66,-1.618 0.32,-0.453 0.711,-0.828 1.184,-1.117 0.468,-0.285 0.968,-0.484 1.496,-0.597 1.203,-0.258 2.121,-0.247 2.754,0.027 l 0.57,2.691 c -0.793,-0.531 -1.703,-0.687 -2.731,-0.468 -0.281,0.058 -0.554,0.152 -0.82,0.293 -0.266,0.132 -0.488,0.316 -0.672,0.539 -0.183,0.218 -0.316,0.484 -0.398,0.789 -0.078,0.304 -0.078,0.652 0.004,1.039 0.078,0.367 0.199,0.675 0.363,0.918 0.16,0.246 0.371,0.457 0.625,0.636 0.254,0.18 0.551,0.34 0.891,0.485 0.339,0.148 0.73,0.301 1.175,0.465 0.461,0.214 0.907,0.445 1.332,0.699 0.426,0.254 0.813,0.551 1.168,0.887 0.356,0.343 0.664,0.738 0.922,1.191 0.262,0.453 0.461,0.988 0.59,1.605 0.18,0.832 0.211,1.563 0.098,2.184 -0.114,0.625 -0.332,1.16 -0.653,1.602 -0.324,0.441 -0.726,0.8 -1.211,1.07 -0.484,0.273 -1.011,0.465 -1.589,0.59 -0.196,0.039 -0.434,0.07 -0.727,0.086 -0.285,0.019 -0.586,0.019 -0.898,0 -0.309,-0.016 -0.61,-0.055 -0.895,-0.114 -0.289,-0.058 -0.523,-0.144 -0.719,-0.254 z m 11.606,-1.523 -1.981,0.301 -2.519,-16.613 1.98,-0.301 z m 12.768997,-1.473 -2.121,0.215 -6.832,-11.719 c -0.176,-0.296 -0.324,-0.609 -0.449,-0.933 l -0.051,0.004 c 0.082,0.355 0.18,1.117 0.297,2.293 l 1.117,10.957 -1.871,0.191 -1.703,-16.719 2.258,-0.23 6.617,11.445 c 0.277,0.477 0.457,0.805 0.543,0.985 l 0.035,-0.004 c -0.101,-0.438 -0.207,-1.188 -0.312,-2.242 l -1.098,-10.77 1.867,-0.191 z m 2.911,-0.183 0.054,-16.801 3.387,0.008 c 4.332,0.015 6.492,2.75 6.473,8.215 -0.008,2.59 -0.614,4.672 -1.825,6.246 -1.207,1.566 -2.82,2.351 -4.836,2.344 z m 1.988,-14.43 -0.039,12.082 1.554,0.004 c 1.372,0.008 2.438,-0.531 3.207,-1.605 0.762,-1.079 1.149,-2.602 1.153,-4.567 0.015,-3.93 -1.399,-5.898 -4.246,-5.906 z m 12.039,14.656 -2.004,-0.097 0.844,-16.785 2.004,0.101 z m 11.113,0.223 c -0.945,0.566 -2.074,0.785 -3.379,0.656 -1.699,-0.164 -2.984,-1.062 -3.855,-2.691 -0.871,-1.633 -1.188,-3.695 -0.946,-6.184 0.262,-2.672 1.047,-4.777 2.36,-6.312 1.308,-1.539 2.844,-2.223 4.598,-2.051 1.132,0.109 2.046,0.434 2.745996,0.965 l -0.269996,2.754 c -0.723,-0.746 -1.559,-1.164 -2.512,-1.258 -1.265,-0.125 -2.347,0.351 -3.246,1.434 -0.898,1.082 -1.445,2.593 -1.633,4.527 -0.179,1.844 0.043,3.347 0.672,4.512 0.629,1.168 1.539,1.804 2.735,1.921 1.101,0.11 2.097,-0.171 2.98,-0.839 z m 11.698996,2.352 -2.121,-0.293 -0.461,-4.379 -4.574,-0.633 -1.594,4.094 -2.108996,-0.289 6.655996,-16.043 2.176,0.296 z m -2.781,-7 -0.695,-6.864 c -0.02,-0.218 -0.028,-0.578 -0.012,-1.062 l -0.035,-0.004 c -0.106,0.433 -0.211,0.773 -0.305,1.019 l -2.515,6.418 z m 13.598,-5.266 -3.297,-0.715 -3.059,14.109 -1.906,-0.414 3.059,-14.109 -3.293,-0.711 0.504,-2.316 8.496,1.843 z m 2.566,15.797 c -1.64,-0.414 -2.762,-1.508 -3.367,-3.281 -0.602,-1.77 -0.594,-3.875 0.023,-6.317 0.661,-2.621 1.692,-4.582 3.094,-5.887 1.399,-1.304 2.965,-1.742 4.688,-1.308 1.601,0.406 2.695,1.492 3.293,3.25 0.593,1.762 0.578,3.867 -0.039,6.316 -0.672,2.657 -1.704,4.633 -3.094,5.926 -1.391,1.289 -2.922,1.723 -4.598,1.301 z m 3.742,-14.438 c -1.043,-0.265 -2.031,0.075 -2.968,1.024 -0.934,0.949 -1.633,2.332 -2.09,4.148 -0.461,1.813 -0.508,3.352 -0.153,4.617 0.356,1.266 1.047,2.032 2.075,2.289 1.09,0.278 2.086,-0.035 2.98,-0.925 0.895,-0.895 1.586,-2.289 2.063,-4.184 0.492,-1.945 0.566,-3.527 0.222,-4.742 -0.343,-1.211 -1.051,-1.957 -2.129,-2.227 z m 8.325,17.504 5.16,-15.988 3.226,1.039 c 4.121,1.332 5.348,4.594 3.668,9.793 -0.797,2.465 -2.008,4.266 -3.636,5.394 -1.629,1.129 -3.403,1.383 -5.325,0.762 z m 6.281,-13.14 -3.711,11.496 1.48,0.48 c 1.305,0.418 2.485,0.235 3.543,-0.558 1.055,-0.793 1.883,-2.125 2.489,-4 1.207,-3.739 0.461,-6.043 -2.25,-6.918 z m 9.644,18.714 c -1.597,-0.55 -2.625,-1.734 -3.078,-3.55 -0.453,-1.817 -0.269,-3.914 0.551,-6.293 0.879,-2.555 2.074,-4.426 3.578,-5.61 1.504,-1.179 3.098,-1.488 4.781,-0.906 1.559,0.535 2.559,1.707 3.008,3.512 0.442,1.808 0.254,3.902 -0.57,6.289 -0.891,2.594 -2.082,4.476 -3.578,5.648 -1.496,1.168 -3.059,1.473 -4.692,0.91 z m 4.942,-14.074 c -1.016,-0.351 -2.031,-0.094 -3.043,0.77 -1.012,0.871 -1.824,2.187 -2.434,3.961 -0.609,1.765 -0.785,3.297 -0.539,4.586 0.25,1.293 0.875,2.113 1.875,2.457 1.063,0.367 2.082,0.14 3.047,-0.672 0.969,-0.817 1.773,-2.149 2.41,-3.996 0.653,-1.899 0.86,-3.469 0.617,-4.707 -0.242,-1.235 -0.882,-2.039 -1.933,-2.399 z m 2.265,15.594 0.965,-2.707 c 0.094,0.285 0.223,0.555 0.395,0.812 0.172,0.262 0.363,0.5 0.586,0.715 0.215,0.215 0.445,0.403 0.683,0.563 0.239,0.16 0.469,0.281 0.692,0.359 0.769,0.274 1.41,0.297 1.922,0.067 0.507,-0.235 0.886,-0.704 1.136,-1.399 0.133,-0.379 0.188,-0.723 0.16,-1.043 -0.027,-0.324 -0.113,-0.64 -0.257,-0.945 -0.145,-0.313 -0.332,-0.625 -0.563,-0.942 -0.234,-0.32 -0.48,-0.656 -0.75,-1.011 -0.273,-0.422 -0.519,-0.836 -0.738,-1.246 -0.219,-0.407 -0.383,-0.836 -0.496,-1.278 -0.11,-0.441 -0.153,-0.914 -0.133,-1.41 0.023,-0.496 0.145,-1.047 0.359,-1.652 0.266,-0.742 0.618,-1.348 1.047,-1.809 0.426,-0.469 0.899,-0.808 1.41,-1.027 0.512,-0.219 1.039,-0.332 1.59,-0.328 0.551,0 1.082,0.093 1.59,0.273 1.16,0.414 1.934,0.902 2.328,1.469 l -0.926,2.594 c -0.394,-0.871 -1.089,-1.481 -2.074,-1.836 -0.273,-0.098 -0.555,-0.16 -0.855,-0.18 -0.297,-0.027 -0.578,0.012 -0.856,0.105 -0.269,0.09 -0.523,0.247 -0.75,0.461 -0.23,0.219 -0.41,0.516 -0.543,0.891 -0.129,0.352 -0.187,0.676 -0.175,0.969 0.011,0.297 0.078,0.582 0.199,0.871 0.121,0.285 0.289,0.578 0.504,0.879 0.211,0.305 0.464,0.64 0.757,1.015 0.282,0.422 0.536,0.856 0.766,1.293 0.231,0.438 0.402,0.895 0.527,1.368 0.125,0.48 0.18,0.976 0.161,1.5 -0.012,0.519 -0.125,1.078 -0.34,1.675 -0.285,0.801 -0.641,1.438 -1.063,1.907 -0.426,0.472 -0.89,0.812 -1.398,1.023 -0.508,0.207 -1.035,0.301 -1.59,0.277 -0.555,-0.023 -1.109,-0.136 -1.664,-0.336 -0.188,-0.066 -0.406,-0.167 -0.664,-0.304 -0.254,-0.137 -0.508,-0.293 -0.766,-0.473 -0.254,-0.176 -0.488,-0.367 -0.699,-0.566 -0.215,-0.203 -0.371,-0.399 -0.477,-0.594 z m 27.551,-7.297 -9.621,14.406 -2.055,-0.73 1.743,-17.223 2.007,0.719 -1.55,12.98 c -0.051,0.415 -0.145,0.883 -0.278,1.411 l 0.032,0.011 c 0.183,-0.41 0.421,-0.836 0.707,-1.281 l 7.07,-10.988 z m -2.273,16.949 -1.899,-0.652 5.473,-15.887 1.895,0.653 z m 11.812,2.606 c -1.449,0.551 -2.89,0.609 -4.328,0.168 -1.66,-0.508 -2.777,-1.656 -3.355,-3.453 -0.578,-1.793 -0.493,-3.907 0.254,-6.344 0.761,-2.485 1.949,-4.356 3.562,-5.606 1.613,-1.25 3.289,-1.613 5.02,-1.082 1.25,0.383 2.218,0.965 2.91,1.75 l -0.84,2.743 c -0.609,-1.082 -1.512,-1.809 -2.699,-2.172 -1.2,-0.368 -2.352,-0.102 -3.461,0.789 -1.11,0.894 -1.942,2.238 -2.492,4.031 -0.563,1.844 -0.676,3.398 -0.34,4.656 0.332,1.262 1.062,2.063 2.191,2.406 0.774,0.239 1.508,0.227 2.203,-0.023 l 1.168,-3.82 -2.367,-0.727 0.688,-2.238 4.222,1.289 z m 4.012,2.371 -1.93,-0.547 4.606,-16.164 1.926,0.551 z m 9.078,2.422 -6.305,-1.594 4.118,-16.293 1.89,0.48 -3.539,14.008 4.414,1.114 z m 11.504,2.543 -2.09,-0.453 -0.129,-4.403 -4.511,-0.98 -1.899,3.965 -2.082,-0.453 7.859,-15.489 2.145,0.465 z m -2.238,-7.188 -0.172,-6.898 c -0.004,-0.223 0.019,-0.578 0.07,-1.063 l -0.031,-0.004 c -0.141,0.422 -0.27,0.754 -0.383,0.993 l -3,6.207 z m 13.726,8.656 -2.113,-0.269 -4.004,-12.961 c -0.101,-0.328 -0.18,-0.664 -0.226,-1.008 l -0.051,-0.008 c 0,0.364 -0.078,1.129 -0.231,2.297 l -1.39,10.93 -1.868,-0.238 2.125,-16.668 2.25,0.285 3.856,12.644 c 0.164,0.524 0.266,0.887 0.309,1.078 l 0.035,0.008 c 0,-0.449 0.066,-1.203 0.199,-2.254 l 1.371,-10.742 1.859,0.238 z m 10.813,-13.972 -3.375,-0.09 -0.375,14.434 -1.949,-0.051 0.378,-14.434 -3.371,-0.086 0.063,-2.367 8.691,0.227 z m 7.937,14.211 -6.59,0.25 -0.628,-16.793 6.324,-0.238 0.09,2.367 -4.379,0.164 0.179,4.754 4.036,-0.153 0.085,2.356 -4.035,0.148 0.188,4.965 4.64,-0.172 z m 1.473,-0.813 -0.274,-2.855 c 0.204,0.215 0.434,0.406 0.7,0.566 0.265,0.164 0.543,0.297 0.832,0.399 0.289,0.101 0.578,0.172 0.863,0.218 0.281,0.039 0.539,0.051 0.773,0.028 0.817,-0.078 1.407,-0.332 1.77,-0.758 0.359,-0.426 0.504,-1.012 0.434,-1.75 -0.039,-0.399 -0.137,-0.734 -0.301,-1.012 -0.16,-0.281 -0.371,-0.531 -0.633,-0.746 -0.262,-0.219 -0.566,-0.422 -0.91,-0.609 -0.348,-0.192 -0.715,-0.391 -1.11,-0.598 -0.425,-0.266 -0.824,-0.535 -1.195,-0.812 -0.371,-0.278 -0.703,-0.594 -0.992,-0.946 -0.289,-0.355 -0.531,-0.761 -0.719,-1.219 -0.191,-0.46 -0.316,-1.011 -0.379,-1.648 -0.074,-0.785 -0.015,-1.48 0.176,-2.082 0.188,-0.605 0.473,-1.117 0.836,-1.531 0.371,-0.414 0.805,-0.742 1.305,-0.977 0.496,-0.23 1.015,-0.375 1.554,-0.426 1.223,-0.117 2.133,-0.003 2.731,0.34 l 0.265,2.739 c -0.726,-0.618 -1.617,-0.875 -2.66,-0.778 -0.285,0.031 -0.57,0.094 -0.847,0.199 -0.282,0.106 -0.52,0.262 -0.731,0.461 -0.207,0.196 -0.367,0.446 -0.484,0.739 -0.113,0.297 -0.152,0.64 -0.113,1.035 0.035,0.375 0.121,0.691 0.253,0.953 0.137,0.262 0.321,0.496 0.551,0.703 0.235,0.203 0.508,0.399 0.832,0.582 0.321,0.184 0.692,0.383 1.114,0.594 0.437,0.265 0.851,0.547 1.246,0.844 0.394,0.3 0.746,0.64 1.062,1.015 0.313,0.379 0.574,0.809 0.781,1.289 0.207,0.477 0.344,1.032 0.403,1.66 0.082,0.848 0.035,1.575 -0.149,2.18 -0.183,0.609 -0.461,1.113 -0.828,1.52 -0.371,0.402 -0.812,0.711 -1.324,0.925 -0.512,0.215 -1.063,0.348 -1.648,0.407 -0.196,0.019 -0.438,0.019 -0.731,0.004 -0.285,-0.016 -0.586,-0.047 -0.894,-0.102 -0.305,-0.051 -0.598,-0.121 -0.875,-0.211 -0.278,-0.094 -0.504,-0.207 -0.684,-0.34 z"
         style="fill:#681420;fill-opacity:1;fill-rule:evenodd;stroke:none"
         id="path2389" />
      <path
         d="M 130.44904,200.13728 92.813044,77.504278 h 28.159996 l 33.137,109.446002 -5.375,19.039 z"
         style="fill:#7c7c7d;fill-opacity:1;fill-rule:evenodd;stroke:none"
         id="path2391" />
      <path
         d="m 92.188044,181.84428 29.678996,-2.933 c 1.789,9.883 5.368,17.109 10.805,21.758 0.094,0.082 0.192,0.16 0.289,0.242 -13.531,-4.196 -26.719,-7.805 -39.253996,-10.235 -0.644,-2.808 -1.148,-5.754 -1.519,-8.832 z m 61.389996,25.762 c 0.36,0.008 0.723,0.012 1.09,0.012 9.75,0 17.117,-2.063 22.063,-6.184 4.949,-4.121 7.437,-8.941 7.437,-14.457 0,-3.562 -1.051,-6.566 -3.121,-9.082 -2.07,-2.476 -5.719,-4.644 -10.91,-6.461 -3.543,-1.254 -11.609,-3.422 -24.238,-6.562 -16.243,-4.055 -27.645,-9.012 -34.203,-14.914 -9.227,-8.278 -13.824996,-18.371 -13.824996,-30.282 0,-7.648 2.175996,-14.839 6.492996,-21.511002 4.347,-6.672 10.593,-11.735 18.765,-15.227 8.176,-3.492 17.996,-5.238 29.574,-5.238 18.836,0 33.043,4.156 42.551,12.504 9.543,8.343 14.524,19.453002 15.016,33.386002 l -30.52,1.047 c -1.301,-7.754 -4.07,-13.304 -8.316,-16.695 -4.242,-3.387 -10.629,-5.098 -19.117,-5.098 -8.77,0 -15.645,1.817 -20.594,5.45 -3.192,2.339 -4.805,5.449 -4.805,9.359 0,3.562 1.508,6.601 4.528,9.113 3.82,3.25 13.117,6.602 27.886,10.094 14.77,3.457 25.68,7.09 32.731,10.793 7.086,3.734 12.629,8.801 16.629,15.262 3.996,6.461 5.996,14.422 5.996,23.886 0,8.594 -2.383,16.66 -7.192,24.168 -2.523,3.942 -5.586,7.356 -9.199,10.231 -12.144,-3.016 -24.68,-6.781 -37.156,-11.035 -2.524,-0.86 -5.047,-1.715 -7.563,-2.559 z"
         style="fill:#ffffff;fill-opacity:1;fill-rule:evenodd;stroke:none"
         id="path2393" />
      <path
         d="m 185.02404,77.504278 h 27.679 l -41.488,135.981002 c -3.355,-1.066 -6.719,-2.176 -10.074,-3.32 -4.149,-1.414 -8.289,-2.813 -12.406,-4.176 z"
         style="fill:#7c7c7d;fill-opacity:1;fill-rule:evenodd;stroke:none"
         id="path2395" />
      <path
         d="m 132.55104,292.27428 c -0.758,0 -1.453,-0.191 -2.09,-0.574 -0.64,-0.383 -1.187,-0.957 -1.648,-1.715 -0.461,-0.758 -0.817,-1.707 -1.067,-2.84 -0.254,-1.137 -0.379,-2.449 -0.379,-3.937 0,-1.383 0.121,-2.641 0.36,-3.77 0.242,-1.125 0.594,-2.094 1.051,-2.898 0.445,-0.778 0.988,-1.375 1.64,-1.797 0.653,-0.422 1.363,-0.637 2.141,-0.637 0.426,0 0.808,0.043 1.156,0.125 0.34,0.082 0.66,0.188 0.949,0.32 0.305,0.153 0.578,0.317 0.828,0.5 0.25,0.184 0.465,0.352 0.653,0.512 v 4.234 h -0.301 c -0.129,-0.191 -0.289,-0.41 -0.48,-0.664 -0.196,-0.257 -0.415,-0.511 -0.661,-0.757 -0.25,-0.247 -0.519,-0.457 -0.812,-0.629 -0.289,-0.172 -0.602,-0.254 -0.93,-0.254 -0.371,0 -0.719,0.097 -1.051,0.297 -0.332,0.199 -0.64,0.531 -0.922,0.988 -0.269,0.449 -0.484,1.039 -0.652,1.769 -0.164,0.735 -0.25,1.629 -0.25,2.672 0,1.098 0.094,2.008 0.274,2.746 0.175,0.731 0.402,1.309 0.675,1.731 0.278,0.433 0.586,0.734 0.926,0.918 0.344,0.187 0.68,0.277 1.012,0.277 0.316,0 0.633,-0.078 0.945,-0.242 0.309,-0.16 0.598,-0.383 0.863,-0.66 0.219,-0.227 0.426,-0.461 0.618,-0.719 0.191,-0.254 0.347,-0.473 0.472,-0.66 h 0.274 v 4.168 c -0.254,0.195 -0.5,0.379 -0.731,0.551 -0.23,0.172 -0.476,0.32 -0.73,0.441 -0.332,0.164 -0.645,0.289 -0.934,0.379 -0.289,0.082 -0.691,0.125 -1.199,0.125 z m 42.289,-0.359 h -2.707 l -0.703,-3.528 h -3.727 l -0.707,3.528 h -2.648 l 3.742,-17.446 h 3.008 z m -4.039,-6.719 -1.238,-6.203 -1.235,6.203 z m 1.109,-17.281 v 0.238 l -2.398,4.371 h -1.676 l 1.684,-4.609 z m -11.714,11.882 c 0,-0.433 -0.051,-0.804 -0.153,-1.113 -0.105,-0.312 -0.281,-0.555 -0.531,-0.734 -0.176,-0.121 -0.379,-0.199 -0.609,-0.227 -0.235,-0.027 -0.508,-0.039 -0.817,-0.039 h -0.933 v 4.656 h 0.796 c 0.411,0 0.754,-0.035 1.032,-0.105 0.277,-0.07 0.511,-0.227 0.699,-0.477 0.18,-0.238 0.308,-0.504 0.394,-0.793 0.079,-0.293 0.122,-0.683 0.122,-1.168 z m 4.101,12.118 h -3.199 l -2.758,-6.407 h -1.187 v 6.407 h -2.622 v -17.446 h 4.383 c 0.602,0 1.114,0.059 1.543,0.176 0.434,0.113 0.836,0.371 1.215,0.758 0.379,0.394 0.684,0.898 0.906,1.516 0.227,0.621 0.34,1.402 0.34,2.335 0,1.29 -0.172,2.336 -0.519,3.149 -0.348,0.812 -0.844,1.488 -1.489,2.027 z m -9.973,0 h -2.703 l -0.707,-3.528 h -3.726 l -0.707,3.528 h -9.856 v -17.446 h 7.336 v 3.383 h -4.715 v 3 h 4.383 v 3.383 h -4.383 v 4.297 h 4.715 v 2.789 l 3.613,-16.852 h 3.012 z m -4.039,-6.719 -1.234,-6.203 -1.238,6.203 z"
         style="fill:#ffffff;fill-opacity:1;fill-rule:evenodd;stroke:none"
         id="path2397" />
    </g>
  </g>
</svg>
