<?xml version="1.0" encoding="UTF-8" standalone="no"?>
<svg
   version="1.1"
   width="207.72241pt"
   height="48.235901pt"
   id="svg1128"
   viewBox="0 0 207.72241 48.235901"
   sodipodi:docname="Logo.cdr"
   xmlns:inkscape="http://www.inkscape.org/namespaces/inkscape"
   xmlns:sodipodi="http://sodipodi.sourceforge.net/DTD/sodipodi-0.dtd"
   xmlns="http://www.w3.org/2000/svg"
   xmlns:svg="http://www.w3.org/2000/svg">
  <defs
     id="defs1132" />
  <sodipodi:namedview
     id="namedview1130"
     pagecolor="#ffffff"
     bordercolor="#000000"
     borderopacity="0.25"
     inkscape:showpageshadow="2"
     inkscape:pageopacity="0.0"
     inkscape:pagecheckerboard="0"
     inkscape:deskcolor="#d1d1d1"
     showgrid="false"
     inkscape:document-units="pt" />
  <path
     d="m 4.6699035,16.425106 c 0.483,0 0.7248,0.2014 0.805,0.6042 0.4028,2.0529 2.1337,3.3412 5.9585005,3.3412 3.8644,0 5.5955,-1.4493 5.5955,-3.1802 0,-1.1273 -0.8049,-2.1337 -3.2206,-2.3351 l -6.2799005,-0.5234 C 2.6170035,13.929306 3.5149462e-6,11.674906 3.5149462e-6,8.0518065 3.5149462e-6,3.8649065 3.6635035,6.4693087e-6 10.789104,6.4693087e-6 c 7.3671,0 10.5877,3.4224000306913 10.5877,7.2866000306913 0,0.3628 -0.2818,0.6844 -0.7648,0.6844 h -3.9855 c -0.4025,0 -0.644,-0.1205 -0.7245,-0.6036 -0.2415,-1.4092 -1.6106,-2.7777 -5.153,-2.7777 -3.3819005,0 -5.2741005,1.3685 -5.2741005,3.1401 0,1.0869 0.7248,1.8916 2.939,2.0529 l 6.2399005,0.5234995 c 5.6362,0.483 7.8501,3.3007 7.8501,6.6426 0,3.7841 -3.2608,8.0111 -11.0705,8.0111 -7.3674005,0 -11.4334004850538,-3.5025 -11.4334004850538,-7.4877 v -0.3223 c 0,-0.4025 0.3219999950538,-0.7248 0.7648999950538,-0.7248 z M 103.6528,0.40280647 h -4.508596 c -0.2656,0 -0.4833,0.2174 -0.4833,0.4829 V 14.076006 c -1.6875,-1.4255 -3.5405,-2.6501 -5.3096,-3.8091 -3.5118,-2.3005995 -6.7843,-4.3595995 -8.1641,-7.5258995 -0.3282,-0.2814 -0.5445,-0.6614 -0.6589,-1.074 -6e-4,-0.001 -9e-4,-0.002 -0.002,-0.003 -0.0999,-0.1397 -0.1814,-0.2915 -0.2465,-0.4513 l -0.7966,-0.80980003 h -3.7033 c -0.2659,0 -0.4833,0.2174 -0.4833,0.4829 V 3.5068065 l -0.0436,0.0139 c 0.0133,0.042 0.0299,0.0812 0.0436,0.1228 V 24.074506 c 0,0.2652 0.2174,0.4826 0.4833,0.4826 h 4.5089 c 0.2658,0 0.483,-0.2174 0.483,-0.4826 v -12.7889 c 1.7179,1.4493 3.5996,2.6871 5.3846,3.8567 4.2038,2.7549 7.835,5.1341 8.5915,9.1911 l 1.2008,0.2236 h 3.703596 c 0.2659,0 0.483,-0.2174 0.483,-0.4826 V 0.88570647 c 0,-0.2655 -0.2171,-0.4829 -0.483,-0.4829 z m 40.7048,4.58940003 v 7.6488995 h 5.8373 c 3.0193,0 4.9515,-1.4092 4.9515,-3.7842995 0,-2.3749 -1.9322,-3.8646 -4.9515,-3.8646 z m -5.4752,-4.10620003 c 0,-0.2659 0.2174,-0.4833 0.483,-0.4833 h 11.192 c 5.8774,0 10.064,3.18050003 10.064,8.45410003 0,3.6634995 -2.2139,6.1191995 -5.4345,7.2460995 v 0.0806 c 0,0 0.7244,0.7655 1.288,1.6106 l 3.1922,4.6773 c 0.0709,0.0994 0.2316,0.3541 0.409,0.6422 0.3646,0.5903 -0.007,1.3762 -0.6971,1.4406 -0.0222,0.002 -0.0413,0.003 -0.0561,0.003 h -4.2165 c -0.2015,0 -0.4833,-0.1613 -0.644,-0.4028 l -4.9115,-7.1657 h -5.1933 v 7.0856 c 0,0.2655 -0.2174,0.4829 -0.483,0.4829 h -4.5092 c -0.2656,0 -0.483,-0.2174 -0.483,-0.4829 z M 113.6587,12.479906 c 0,4.8714 3.5832,7.8906 7.8504,7.8906 4.2671,0 7.8501,-3.0192 7.8501,-7.8906 0,-4.8709995 -3.583,-7.8901995 -7.8501,-7.8901995 -4.2672,0 -7.8504,3.0192 -7.8504,7.8901995 z m 21.1757,0 c 0,7.5686 -6.079,12.48 -13.3253,12.48 -7.2462,0 -13.3254,-4.9114 -13.3254,-12.48 0,-7.4472995 6.0792,-12.4798995306912 13.3254,-12.4798995306912 7.2463,0 13.3253,5.0326000306912 13.3253,12.4798995306912 z m -72.108696,7.4879 h 11.9162 c 0.3099,0 0.5638,0.2536 0.5638,0.5638 v 3.4624 c 0,0.3097 -0.2536,0.5632 -0.5636,0.5632 h -16.9086 c -0.2656,0 -0.4831,-0.2172 -0.4831,-0.4829 V 0.88590647 c 0,-0.2655 0.2175,-0.4833 0.4831,-0.4833 h 4.5092 c 0.2659,0 0.483,0.2178 0.483,0.4833 z m -30.6986,-7.4879 c 0,4.8714 3.583,7.8906 7.8501,7.8906 4.2674,0 7.8501,-3.0192 7.8501,-7.8906 0,-4.8709995 -3.5827,-7.8901995 -7.8501,-7.8901995 -4.2671,0 -7.8501,3.0192 -7.8501,7.8901995 z m 21.1755,0 c 0,7.5686 -6.0789,12.48 -13.3254,12.48 -7.2463,0 -13.3251,-4.9114 -13.3251,-12.48 0,-7.4472995 6.0788,-12.4798995306912 13.3251,-12.4798995306912 7.2465,0 13.3254,5.0326000306912 13.3254,12.4798995306912 z"
     style="fill:#e95e15;fill-rule:evenodd"
     id="path1122"
     inkscape:export-filename="solnor.svg"
     inkscape:export-xdpi="96"
     inkscape:export-ydpi="96" />
  <path
     d="m 175.82683,30.362806 c -0.052,0.21765 -0.0893,0.43498 -0.11542,0.65216 l 10.52613,-7.60021 c -0.38958,-0.73858 -0.6923,-1.50395 -0.91015,-2.28357 l -11.45119,2.1753 c -0.0184,0.0486 -0.0359,0.0971 -0.052,0.14618 -0.1784,0.54758 -0.0955,1.18323 0.10953,1.71103 0.23718,0.60964 0.62924,1.14607 1.16625,1.52454 0.49711,0.35045 1.0358,0.34585 1.59409,0.50814 0.16643,0.0481 0.1984,0.0305 0.197,0.1663 -0.003,0.28807 -0.22582,0.62154 -0.34652,0.87009 -0.32712,0.67504 -0.54324,1.40144 -0.71776,2.13004 z m 9.10456,-11.51492 c -0.29456,-4.09203 1.58351,-8.22124 5.25768,-10.6105195 1.876,-1.21995 4.01312,-1.86049 6.19739,-1.88215 -0.99346,-0.80643 -2.3083,-1.09017 -3.32712,-1.86811 -0.27363,-0.20916 -0.53207,-0.44575 -0.83752,-0.60925 -0.36444,-0.19492 -0.75361,-0.2789 -1.16486,-0.29702 -0.85572,-0.0382 -1.72836,0.15246 -2.56173,0.32458 -0.79548,0.16463 -1.60906,0.32117 -2.39986,0.0499 -0.75816,-0.25985 -1.50822,-0.36979 -2.30617,-0.43558 -0.38281,-0.0316 -0.76764,-0.0557 -1.14732,-0.11548 -0.3851,-0.0609 -0.76104,-0.16444 -1.15002,-0.20275 -0.72719,-0.0722 -1.29971,0.26688 -1.79147,0.76985 -0.10559,0.10833 -0.22147,0.26113 -0.37694,0.28781 -0.27683,0.0472 -0.54371,-0.25122 -0.69176,-0.44267 -0.1877,-0.24293 -0.335,-0.52037 -0.48098,-0.78925 -0.0468,-0.086 -0.0957,-0.17158 -0.14063,-0.25885 -0.009,-0.0217 -0.0295,-0.0646 -0.0334,-0.0753 -0.019,-0.0538 -0.038,-0.10766 -0.0565,-0.16149 -0.15547,-0.45638 -0.26567,-0.98732 -0.53414,-1.39354 -0.36718,-0.55588003 -1.01721,-0.35808003 -1.43921,0.007 -0.25283,0.21833 -0.57789,0.75274 -0.92453,0.59788 -0.20916,-0.0937 -0.38175,-0.28546 -0.57173,-0.40984 -0.23966,-0.15634 -0.52552,-0.25123 -0.81306,-0.21572 -0.26988,0.033 -0.40522,0.17119 -0.5203,0.46239 -0.0118,0.0297 -0.0678,0.13348 -0.085,0.18604 -0.29783,0.70452 -0.32585,1.39728 -0.43906,2.15317 -0.1207,0.80536 -0.25229,1.60003 -0.45397,2.38974 -0.21451,0.83834 -0.47396,1.66457 -0.67484,2.50644 -0.12892,0.54057 -0.18308,1.1131 -0.38135,1.6348695 -0.20048,0.52887 -0.61004,0.78685 -1.10293,1.01822 -0.43806,0.20588 -0.85679,0.48741 -1.20424,0.82522 -0.29248,0.28393 -0.58617,0.66448 -0.55935,1.09498 0.0363,0.57989 0.59105,0.80222 1.09123,0.85872 0.56223,0.0638 1.14051,-0.0905 1.69799,0.0148 0.18462,0.0351 0.24601,0.0454 0.26834,0.24233 0.0361,0.31782 -0.0834,0.64722 -0.13513,0.95736 -0.26154,1.56312 -0.0397,3.26158 0.51561,4.73872 0.13675,0.36329 0.34077,0.75153 0.62249,1.05157 z m -1.93939,19.71595 6.56363,-11.25118 c -0.75254,-0.5641 -1.43728,-1.22176 -2.0395,-1.963 l -11.62692,8.39529 c 0.10063,0.49356 0.22481,0.98478 0.35146,1.47299 0.2184,0.84355 0.47664,1.67633 0.74532,2.50503 0.24648,0.76003 0.54986,1.51217 0.75943,2.2829 0.12906,0.47476 0.23411,1.00169 0.60804,1.35355 0.44935,0.42302 1.1171,0.33428 1.51504,-0.10271 0.36544,-0.40154 0.58175,-0.96104 0.89938,-1.35623 0.39907,-0.49663 1.11805,-0.90253 1.70148,-1.13376 0.19472,-0.0773 0.38757,-0.1324 0.57955,-0.16951 z m 13.55681,-8.93251 c -0.81051,0 -1.62644,-0.085 -2.43776,-0.25738 -0.89904,-0.19097 -1.75964,-0.48286 -2.57023,-0.86561 l -6.04084,10.35508 c 0.58409,0.16369 1.1599,0.35694 1.73363,0.55226 0.37868,0.12893 0.75609,0.27698 1.14553,0.36999 0.41084,0.0982 0.83385,0.13447 1.24442,0.23344 0.74044,0.17901 1.20711,0.71797 1.82986,1.11002 1.10996,0.69897 2.60053,0.57855 3.82222,0.29576 0.11862,-0.0274 0.23745,-0.0547 0.35668,-0.0791 0.03,-0.006 0.0936,-0.0181 0.14804,-0.0284 -0.13493,0.43392 -0.47811,0.78037 -0.58824,1.22631 -0.17365,0.70138 -0.008,1.46657 0.0479,2.17477 0.0454,0.57026 0.13755,1.14988 0.33227,1.68997 0.3562,0.98832 1.28133,2.11746 2.47039,1.66978 0.99428,-0.3742 1.44056,-1.60713 1.61508,-2.56675 0.11442,-0.62904 0.0787,-1.21394 -0.057,-1.84003 -0.0818,-0.37707 -0.16089,-0.74625 -0.19318,-1.13189 -0.0366,-0.43906 -0.0619,-0.88105 -0.15307,-1.31316 -0.1776,-0.84355 -0.47249,-1.66269 -0.70559,-2.4916 -0.24334,-0.86621 -0.40462,-1.73638 -0.49517,-2.63128 -0.0852,-0.8396 -0.15099,-1.6798 -0.27389,-2.51526 -0.0142,-0.0955 -0.0299,-0.19064 -0.0372,-0.28713 -0.004,-0.057 -0.008,-0.11422 -0.006,-0.17139 6.7e-4,-0.0181 6.7e-4,-0.0309 0,-0.0393 0.003,-0.007 0.005,-0.0148 0.009,-0.0265 0.021,-0.0676 -0.009,-0.0168 0.0524,-0.0835 0.0886,-0.0955 0.20275,-0.16255 0.31354,-0.22855 0.66475,-0.39701 1.42738,-0.58511 2.04939,-1.05907 0.55582,-0.42374 0.93884,-1.00022 1.10875,-1.67934 0.12023,-0.48098 0.15327,-0.98136 0.18482,-1.48207 -1.54292,0.72612 -3.21116,1.09985 -4.90588,1.09985 z m 9.72679,-17.97771 c 0.65672,1.01079 1.13557,2.08677 1.44496,3.19097 2e-4,-0.0157 2e-4,-0.0316 4.1e-4,-0.047 0.008,-0.78478 -0.009,-1.59034 -0.25718,-2.34275 -0.25364,-0.77113 -0.71483,-1.37989 -1.27338,-1.95617 -0.23959,-0.24708 -0.47885,-0.49189 -0.6923,-0.7626995 -0.21678,-0.27557 -0.41598,-0.5407 -0.70291,-0.7486 -0.40897,-0.29623 -0.93777,-0.3958 -1.45848,-0.43171 1.14773,0.83011 2.14402,1.8738595 2.93888,3.0979595 z m -4.67727,14.15222 c 4.30528,-2.79939 5.53165,-8.58199 2.73394,-12.8902 -1.35497,-2.08677 -3.44134,-3.5205695 -5.87395,-4.0371995 -2.43268,-0.51663 -4.9208,-0.0544 -7.0061,1.3013995 -4.30514,2.79972 -5.53164,8.58239 -2.73392,12.89034 1.35522,2.08676 3.44132,3.52057 5.87394,4.0372 2.43289,0.51682 4.9212,0.0542 7.00609,-1.30154 z"
     style="fill:#e95e15;fill-rule:evenodd;stroke-width:0.668687"
     id="path1124" />
  <path
     d="m 113.1164,38.225706 c 0.0368,0 0.0736,-0.0184 0.1104,-0.0552 0.0368,-0.0368 0.0551,-0.0736 0.0551,-0.1104 v -0.5889 c 0,-0.0368 -0.0183,-0.0736 -0.0551,-0.1104 -0.0368,-0.0368 -0.0736,-0.0552 -0.1104,-0.0552 H 106.4 v -3.9563 h 7.2684 c 0.0368,0 0.0736,-0.0183 0.1104,-0.0552 0.0368,-0.0368 0.0552,-0.0736 0.0552,-0.1104 v -0.5888 c 0,-0.0368 -0.0184,-0.0736 -0.0552,-0.1104 -0.0368,-0.0368 -0.0736,-0.0552 -0.1104,-0.0552 h -8.1517 c -0.092,0 -0.1472,0.0552 -0.1472,0.1472 v 10.7462 c 0,0.0921 0.0552,0.1473 0.1472,0.1473 h 8.3357 c 0.0368,0 0.0736,-0.0184 0.1104,-0.0552 0.0369,-0.0368 0.0552,-0.0736 0.0552,-0.1104 v -0.5888 c 0,-0.0369 -0.0183,-0.0737 -0.0552,-0.1105 -0.0368,-0.0368 -0.0736,-0.0552 -0.1104,-0.0552 H 106.4 v -4.3242 z m 9.2741,5.0756 c 0,0.0399 0.0184,0.0767 0.0552,0.1135 0.0368,0.0368 0.0736,0.0552 0.1104,0.0552 h 0.6625 c 0.0368,0 0.0736,-0.0184 0.1104,-0.0552 0.0368,-0.0368 0.0552,-0.0736 0.0552,-0.1135 v -4.6125 c 0,-0.9017 -0.276,-1.6225 -0.8097,-2.156 -0.5336,-0.5337 -1.3065,-0.7913 -2.3185,-0.7913 -0.6808,0 -1.2881,0.1656 -1.8401,0.4784 -0.5521,0.2975 -0.9753,0.6839 -1.2697,1.144 h -0.0552 l -0.184,-1.1777 c -0.0184,-0.1686 -0.0921,-0.2607 -0.184,-0.2607 h -0.4784 c -0.0368,0 -0.0737,0.0184 -0.1105,0.0736 -0.0368,0.0553 -0.0552,0.0921 -0.0552,0.1319 v 7.1734 c 0,0.0368 0.0184,0.0736 0.0552,0.1104 0.0368,0.0368 0.0737,0.0552 0.1105,0.0552 h 0.6624 c 0.0368,0 0.0736,-0.0184 0.1103,-0.0552 0.0368,-0.0368 0.0553,-0.0736 0.0553,-0.1104 v -4.5574 c 0.276,-0.5919 0.6808,-1.0918 1.2328,-1.4782 0.5521,-0.3864 1.1777,-0.5888 1.8954,-0.5888 0.6624,0 1.1777,0.1839 1.5641,0.552 0.3864,0.368 0.5704,0.8679 0.5704,1.4751 z m 11.2063,-3.3092 0.0368,-0.6992 c 0.0552,-1.0121 -0.3496,-1.8585 -1.0305,-2.5394 -0.6808,-0.6808 -1.6376,-1.012 -2.8706,-1.012 -1.2512,0 -2.2633,0.3864 -3.0177,1.1409 -0.7545,0.7544 -1.1409,1.6929 -1.1409,2.8154 0,1.196 0.4048,2.1529 1.196,2.8705 0.7913,0.7176 1.8033,1.0673 3.0363,1.0673 1.4168,0 2.5761,-0.4601 3.4778,-1.3985 0.092,-0.092 0.1472,-0.184 0.1472,-0.2761 0,-0.0551 -0.0184,-0.1103 -0.0736,-0.1655 l -0.3313,-0.3129 c -0.0551,-0.0551 -0.1104,-0.0736 -0.1656,-0.0736 -0.0551,0 -0.1287,0.0368 -0.2024,0.1104 -0.8096,0.8097 -1.7665,1.2145 -2.8521,1.2145 -0.8649,0 -1.601,-0.2392 -2.1898,-0.6992 -0.5888,-0.46 -0.92,-1.1409 -0.9936,-2.0426 z m -3.8826,-3.3489 c 0.8832,0 1.5641,0.2207 2.0609,0.6624 0.4968,0.4416 0.7545,1.0488 0.7728,1.8033 h -5.9068 c 0.1288,-0.8281 0.4785,-1.4537 1.0673,-1.8585 0.5888,-0.4048 1.2513,-0.6072 2.0058,-0.6072 z m 7.2317,0.6839 -0.1841,-1.1409 c -0.0183,-0.1686 -0.1104,-0.2607 -0.2024,-0.2607 h -0.46 c -0.0368,0 -0.0736,0.0184 -0.1105,0.0736 -0.0368,0.0553 -0.0551,0.0921 -0.0551,0.1319 v 7.1734 c 0,0.0368 0.0183,0.0736 0.0551,0.1104 0.0369,0.0368 0.0737,0.0552 0.1105,0.0552 h 0.6624 c 0.0368,0 0.0736,-0.0184 0.1104,-0.0552 0.0368,-0.0368 0.0552,-0.0736 0.0552,-0.1104 v -4.5574 c 0.2208,-0.5919 0.5889,-1.0887 1.1042,-1.4966 0.5152,-0.4048 1.0488,-0.6072 1.6193,-0.6072 0.4969,0 0.8832,0.1471 1.1593,0.4416 0.276,0.2944 0.4232,0.7023 0.4232,1.2175 v 0.368 c 0,0.0368 0.0184,0.0736 0.0552,0.1135 0.0368,0.0368 0.0736,0.0553 0.1104,0.0553 h 0.6624 c 0.0368,0 0.0736,-0.0185 0.1104,-0.0553 0.0368,-0.0399 0.0553,-0.0767 0.0553,-0.1135 v -0.4231 c 0,-0.7944 -0.2209,-1.4201 -0.6441,-1.8617 -0.4233,-0.4416 -1.0305,-0.6624 -1.8217,-0.6624 -0.5336,0 -1.0489,0.1472 -1.5457,0.4232 -0.4968,0.2791 -0.92,0.6655 -1.2697,1.1624 z m 6.5693,8.3326 c 0,0.7176 0.3128,1.3249 0.9568,1.8217 0.6441,0.4968 1.5089,0.7545 2.5946,0.7545 h 0.0735 c 1.1961,0 2.1162,-0.276 2.7418,-0.8465 0.6256,-0.5704 0.9385,-1.2328 0.9385,-1.9873 0,-0.6993 -0.2576,-1.2881 -0.7545,-1.7481 -0.4968,-0.4417 -1.2328,-0.6809 -2.1897,-0.6809 h -2.0977 c -0.8648,0 -1.2881,-0.3312 -1.2881,-0.9752 0,-0.368 0.1656,-0.7177 0.4784,-1.0305 0.4969,0.3313 1.1041,0.4969 1.8218,0.4969 0.9384,0 1.6929,-0.276 2.2633,-0.8281 0.5704,-0.552 0.8464,-1.2329 0.8464,-2.0609 0,-0.4048 -0.1104,-0.8281 -0.3128,-1.2697 0.2944,-0.3864 0.7361,-0.5888 1.3249,-0.5888 0.092,0 0.1288,-0.0368 0.1288,-0.1289 v -0.7544 c 0,-0.092 -0.0552,-0.1288 -0.184,-0.1288 -0.7728,0 -1.3433,0.2944 -1.7297,0.8832 h -0.0184 c -0.5888,-0.5888 -1.3617,-0.8832 -2.3001,-0.8832 -0.9385,0 -1.6929,0.276 -2.2634,0.8281 -0.5704,0.552 -0.8464,1.2328 -0.8464,2.0425 0,0.6992 0.2208,1.3064 0.644,1.8401 -0.552,0.4784 -0.828,1.0304 -0.828,1.6377 0,0.7176 0.3496,1.2328 1.0304,1.5273 v 0.0184 c -0.6808,0.5704 -1.0121,1.2329 -1.0121,2.0057 z m 4.3794,-1.8217 c 0.6625,0 1.1409,0.1472 1.4537,0.4417 0.3128,0.2943 0.4601,0.6624 0.4601,1.0856 0,0.5153 -0.2393,0.9569 -0.6993,1.3249 -0.46,0.368 -1.1225,0.552 -1.969,0.552 h -0.1288 c -0.7176,0 -1.3064,-0.1656 -1.7664,-0.4968 -0.4601,-0.3313 -0.6993,-0.7545 -0.6993,-1.2513 0,-0.6073 0.3313,-1.1593 1.0121,-1.6561 z m -3.1834,-5.2811 c 0,-0.5521 0.184,-1.0121 0.5705,-1.3801 0.3864,-0.368 0.8833,-0.5521 1.5089,-0.5521 0.6255,0 1.1224,0.1841 1.4905,0.5521 0.368,0.368 0.552,0.828 0.552,1.3801 0,0.552 -0.184,1.012 -0.552,1.3801 -0.3681,0.368 -0.865,0.552 -1.4905,0.552 -0.6256,0 -1.1225,-0.184 -1.5089,-0.552 -0.3865,-0.3681 -0.5705,-0.8281 -0.5705,-1.3801 z m 15.1441,-2.2633 c 0.0553,-0.1105 0.0736,-0.2024 0.0736,-0.2577 0,-0.0736 -0.0368,-0.1104 -0.1103,-0.1104 h -0.7177 c -0.1288,0 -0.2207,0.0552 -0.276,0.184 l -2.5394,6.1184 h -0.0368 l -0.4784,-1.0121 -2.6866,-5.0695 c -0.0735,-0.1472 -0.1839,-0.2208 -0.3128,-0.2208 h -0.736 c -0.092,0 -0.1289,0.0368 -0.1289,0.1104 0,0.0368 0.0185,0.1104 0.0921,0.2392 l 3.7907,7.1458 -1.7666,4.263 c -0.0736,0.1656 -0.092,0.2575 -0.092,0.276 0,0.0551 0.0368,0.092 0.1288,0.092 h 0.7177 c 0.1471,0 0.2392,-0.0552 0.276,-0.1656 z"
     style="fill:#ffffff;fill-rule:evenodd"
     id="path1126" />
</svg>
