<?xml version="1.0" encoding="UTF-8" standalone="no"?>
<!-- Created with Inkscape (http://www.inkscape.org/) -->

<svg
   version="1.1"
   id="svg2"
   width="305.4603"
   height="251.49712"
   viewBox="0 0 305.4603 251.49711"
   sodipodi:docname="t-shirt.svg"
   inkscape:export-filename="t-shirt.svg"
   inkscape:export-xdpi="96"
   inkscape:export-ydpi="96"
   xmlns:inkscape="http://www.inkscape.org/namespaces/inkscape"
   xmlns:sodipodi="http://sodipodi.sourceforge.net/DTD/sodipodi-0.dtd"
   xmlns="http://www.w3.org/2000/svg"
   xmlns:svg="http://www.w3.org/2000/svg">
  <sodipodi:namedview
     id="namedview39"
     pagecolor="#ffffff"
     bordercolor="#000000"
     borderopacity="0.25"
     inkscape:showpageshadow="2"
     inkscape:pageopacity="0.0"
     inkscape:pagecheckerboard="0"
     inkscape:deskcolor="#d1d1d1"
     showgrid="false" />
  <defs
     id="defs6">
    <clipPath
       clipPathUnits="userSpaceOnUse"
       id="clipPath42">
      <path
         d="M 346.05554,352.0191 H 818.2716 V 770.87744 H 346.05554 Z"
         clip-rule="evenodd"
         id="path40" />
    </clipPath>
    <clipPath
       clipPathUnits="userSpaceOnUse"
       id="clipPath58">
      <path
         d="M 465.25183,397.85172 H 700.02588 V 629.95789 H 465.25183 Z"
         clip-rule="evenodd"
         id="path56" />
    </clipPath>
    <clipPath
       clipPathUnits="userSpaceOnUse"
       id="clipPath72">
      <path
         d="M 0,0 H 1562.5 V 1562.5 H 0 Z"
         clip-rule="evenodd"
         id="path70" />
    </clipPath>
  </defs>
  <g
     id="g10"
     transform="matrix(0.31999998,0,0,0.31999998,-110.80227,-112.6461)">
    <g
       id="g36">
      <g
         id="g38"
         clip-path="url(#clipPath42)">
        <g
           id="g44"
           transform="matrix(1.0436017,0,0,1.0436017,346.25711,352.0191)">
          <path
             d="M 452.48047,60.704407 V 255.34351 c 0,33.47247 -26.08594,60.70489 -58.15039,60.70489 h -86.25293 l -78.37305,81.81232 c -1.40625,1.46881 -3.31445,2.29339 -5.30371,2.29339 -1.98877,0 -3.89648,-0.82458 -5.30322,-2.29235 L 140.71387,316.0484 H 58.150391 C 26.085938,316.0484 0,288.81598 0,255.34351 V 60.704407 C 0,27.231873 26.085938,0 58.150391,0 H 394.33008 c 32.06445,0 58.15039,27.231873 58.15039,60.704407 z"
             style="fill:#c60000;fill-opacity:1;fill-rule:nonzero;stroke:none"
             id="path46" />
          <path
             d="M 394.33008,0 H 58.150391 C 26.085938,0 0,27.231873 0,60.704407 V 255.34351 c 0,33.47247 26.085938,60.70489 58.150391,60.70489 h 82.563479 l 78.3833,81.81336 c 1.40674,1.46777 3.31445,2.29235 5.30322,2.29235 1.98926,0 3.89746,-0.82458 5.30371,-2.29339 l 78.37305,-81.81232 h 86.25293 c 32.06445,0 58.15039,-27.23242 58.15039,-60.70489 V 60.704407 C 452.48047,27.231873 426.39453,0 394.33008,0 Z m -103.90741,166.65076 -62.23035,62.23101 c -0.15619,0.14295 -0.87353,0.76838 -1.97534,0.76111 -1.07764,-0.007 -1.77698,-0.61444 -1.93719,-0.76111 l -62.23084,-62.23101 c -14.81146,-13.40357 -19.90552,-33.83307 -13.00256,-50.79401 8.04498,-19.766723 28.35431,-24.924621 29.72186,-25.243835 17.45032,-4.072937 36.09985,3.514099 47.46759,18.992615 11.36816,-15.478638 30.02106,-23.064881 47.46753,-18.992615 0.87726,0.20459 21.58356,5.24292 29.72217,25.243835 6.95569,17.09436 1.72943,37.49878 -13.00287,50.79401 z"
             style="fill:#c60000;fill-opacity:1;fill-rule:nonzero;stroke:none"
             id="path48" />
          <path
             d="m 303.42554,115.85675 c 6.95569,17.09436 1.72943,37.49878 -13.00287,50.79401 l -62.23035,62.23101 c -0.15619,0.14295 -0.87353,0.76838 -1.97534,0.76111 -1.07764,-0.007 -1.77698,-0.61444 -1.93719,-0.76111 l -62.23084,-62.23101 c -14.81146,-13.40357 -19.90552,-33.83307 -13.00256,-50.79401 8.04498,-19.766723 28.35431,-24.924621 29.72186,-25.243835 17.45032,-4.072937 36.09985,3.514099 47.46759,18.992615 11.36816,-15.478638 30.02106,-23.064881 47.46753,-18.992615 0.87726,0.20459 21.58356,5.24292 29.72217,25.243835 z"
             style="fill:#c60000;fill-opacity:1;fill-rule:nonzero;stroke:none"
             id="path50" />
        </g>
      </g>
    </g>
    <g
       id="g52">
      <g
         id="g54"
         clip-path="url(#clipPath58)">
        <g
           id="g60"
           transform="matrix(1.2183218,0,0,1.2183218,458.48544,392.24747)">
          <path
             d="M 7.7954998,97.973999 C 10.290899,101.8131 36.6525,113.094 44.3685,110.754 c 2.916599,-2.9167 2.6474,-16.270998 4.375,-19.686999 4.222999,13.283999 -4.837601,85.654009 -5.1041,96.977999 11.251,7.8688 95.169,7.0237 114.9,2.3408 3.03129,-4.29899 -7.29151,-67.994 -6.2558,-97.130993 1.9955,2.919403 3.134,10.579003 3.6458,13.854003 8.13949,2.3408 37.724,-4.3749 39.912,-8.020698 0.0759,-7.292999 -20.22501,-63.437 -25.32899,-66.352997 -5.7374,-4.9429 -40.461,-16.901001 -45.40001,-22.351 -1.1398,-0.6370399 -2.0402,-2.2488992 -2.6734,-3.1698997 -5.69889,2.625 -33.790997,3.6528007 -39.017995,-0.43821 -1.263298,1.5124001 -1.129501,2.4783997 -3.029602,3.3512997 -3.645798,0 -35.826,15.276 -46.537998,23.913001 -7.7297,9.169098 -27.3999996,59.291 -26.0580006,63.935005 l 9.54e-5,-0.0013 z"
             style="fill:#ffffff;fill-opacity:1;fill-rule:evenodd;stroke:none"
             id="path62" />
          <path
             d="M 83.030998,4.5938001 C 77.453201,12.4632 62.437996,15.157801 53.167,21.490799 c -9.1567,5.6033 -21.16,8.9517 -25.501,19.760002 C 18.785702,59.284801 10.555,76.491806 5.7810001,96.062805 8.8867998,105.3998 22.528,106.92181 30.846001,110.6898 c 2.798,0.73475 8.589199,2.37021 12.269001,1.5124 2.9659,-2.6436 3.8208,-7.7804 5.3176,-16.662001 C 52.5112,112.8382 43.0364,161.40219 41.814701,188.5822 c 7.617901,6.3316 22.639004,4.2518 33.747997,5.52341 27.841992,0.90748 59.962002,-0.49903 85.749012,-1.4856 -1.16401,-9.3158 -2.5277,-21.27499 -2.3208,-31.091 -1.80221,-17.84101 -4.8754,-34.961 -5.7818,-52.878 -0.58065,-1.203 -0.40892,-8.045 -0.79807,-11.447 2.468,5.1698 4.01801,11.28 4.051,12.41 5.42309,-0.95387 23.35,-3.2565 28.274,-4.27159 5.2269,-0.2986 10.084,-0.94948 12.845,-3.07241 -0.0965,-2.480101 -1.57491,-7.146498 -2.5902,-14.761999 -6.1806,-18.75 -12.25399,-37.831001 -21.99099,-55.071999 -9.10691,-7.773201 -22.374,-9.420299 -32.973,-14.85 -9.33839,-2.6388 -12.52999,-7.510201 -18.92899,-11.2889997 -11.784,3.2732001 -24.260008,4.5891997 -38.067007,-1.7054 l 1.45e-4,0.00219 z m 0.9375,3.8616004 c 12.059998,3.5380005 25.288002,3.0748005 37.500002,0.6071396 8.50249,9.0384999 22.07,10.6989989 32.919,16.2000009 11.08799,3.219999 20.88299,11.292002 23.477,23.087 6.5217,16.225998 13.131,34.394005 16.894,51.499 -11.273,4.968599 -25.05,5.793799 -37.384,5.276799 1.1772,-6.225895 -7.28731,-21.467999 -7.1998,-7.8662 0.0593,30.523 7.657,62.47 8.1909,92.933 -30.244,2.21449 -63.210998,3.2064 -93.644996,1.2698 -10.506001,-0.56228 -24.957001,-2.0514 -18.641998,-16.485 2.095401,-26.908 6.625801,-54.244 5.042099,-81.271999 -5.1572,-13.111 -5.842499,10.376999 -8.026802,14.982999 -11.969,-0.2594 -25.133,-4.3572 -35.0540013,-10.772001 4.8936003,-19.798004 13.9130003,-40.166 23.1450003,-58.316002 5.994198,-10.353 18.834,-13.411998 28.57,-19.381 7.246303,-4.7861 17.820995,-6.3398 24.214001,-11.7630006 z"
             style="fill:#ffffff;fill-opacity:1;fill-rule:evenodd;stroke:none"
             id="path64" />
        </g>
      </g>
    </g>
    <g
       id="g66"
       style="fill:#ffffff">
      <g
         id="g68"
         clip-path="url(#clipPath72)"
         style="fill:#ffffff">
        <g
           id="g74"
           transform="matrix(3.125,0,0,3.125,351.74152,903.78705)"
           style="fill:#ffffff">
          <g
             aria-label="T-SHIRTS &amp;"
             transform="translate(0,35)"
             id="text78"
             style="font-weight:300;font-size:35.98px;font-family:HKGrotesk;-inkscape-font-specification:HKGrotesk-Light;fill:#ffffff">
            <path
               d="M 22.171269,-23.067256 H 12.824902 V 0 H 9.3463671 V -23.067256 H 0 v -3.092031 h 22.171269 z"
               id="path982"
               style="fill:#ffffff" />
            <path
               d="M 35.551509,-9.8558495 H 24.588853 v -3.1798725 h 10.962656 z"
               id="path984"
               style="fill:#ffffff" />
            <path
               d="m 58.948021,-7.4665526 q 0,1.5284472 -0.720303,3.0217577 -0.702734,1.4933106 -1.985224,2.5298438 -1.405469,1.12437494 -3.285284,1.75683587 -1.862246,0.63246093 -4.497499,0.63246093 -2.828506,0 -5.094825,-0.52705078 -2.24875,-0.52705077 -4.585341,-1.56358392 v -4.3569531 h 0.245957 q 1.985224,1.6514257 4.585341,2.5474121 2.600118,0.8959863 4.884004,0.8959863 3.232578,0 5.024551,-1.2122168 1.809541,-1.2122168 1.809541,-3.2325781 0,-1.7392675 -0.86085,-2.5649804 -0.843281,-0.825713 -2.582548,-1.28249 -1.317627,-0.351367 -2.863643,-0.579756 -1.528447,-0.228389 -3.250146,-0.579756 -3.478536,-0.737871 -5.165098,-2.512275 -1.668994,-1.791973 -1.668994,-4.655615 0,-3.285284 2.775801,-5.375918 2.7758,-2.108203 7.044912,-2.108203 2.758232,0 5.059687,0.52705 2.301455,0.527051 4.075859,1.300059 v 4.110996 h -0.245957 q -1.49331,-1.264922 -3.935312,-2.090635 -2.424434,-0.843281 -4.971846,-0.843281 -2.793369,0 -4.4975,1.159512 -1.686562,1.159511 -1.686562,2.986621 0,1.633857 0.843281,2.56498 0.843281,0.931123 2.969053,1.423037 1.124375,0.245957 3.197441,0.597324 2.073067,0.351368 3.513672,0.720303 2.916348,0.773008 4.39209,2.336592 1.475742,1.563584 1.475742,4.3745214 z"
               id="path986"
               style="fill:#ffffff" />
            <path
               d="M 79.338822,0 H 75.860287 V -12.807334 H 62.806996 V 0 h -3.478535 v -26.159287 h 3.478535 v 10.259922 h 13.053291 v -10.259922 h 3.478535 z"
               id="path988"
               style="fill:#ffffff" />
            <path
               d="M 93.947754,0 H 83.617559 v -2.6703906 h 3.42583 V -23.488896 h -3.42583 v -2.670391 h 10.330195 v 2.670391 h -3.42583 v 20.8185054 h 3.42583 z"
               id="path990"
               style="fill:#ffffff" />
            <path
               d="m 116.43211,0 h -4.51507 l -8.74905,-10.400469 H 98.266423 V 0 h -3.478535 v -26.159287 h 7.326002 q 2.37173,0 3.95288,0.316231 1.58116,0.298662 2.84608,1.089238 1.42304,0.895986 2.21361,2.266318 0.80815,1.352764 0.80815,3.443399 0,2.828506 -1.42304,4.743457 -1.42304,1.897382 -3.91775,2.863642 z m -8.13415,-18.798144 q 0,-1.124375 -0.40408,-1.985225 -0.3865,-0.878418 -1.30006,-1.475742 -0.75543,-0.509482 -1.79197,-0.702734 -1.03653,-0.210821 -2.442,-0.210821 h -4.093427 v 9.873418 h 3.513667 q 1.65143,0 2.88122,-0.281094 1.22978,-0.298662 2.09063,-1.089238 0.79058,-0.737871 1.15951,-1.686562 0.38651,-0.96626 0.38651,-2.442002 z"
               id="path992"
               style="fill:#ffffff" />
            <path
               d="m 134.66143,-23.067256 h -9.34637 V 0 h -3.47853 v -23.067256 h -9.34637 v -3.092031 h 22.17127 z"
               id="path994"
               style="fill:#ffffff" />
            <path
               d="m 156.91369,-7.4665526 q 0,1.5284472 -0.7203,3.0217577 -0.70274,1.4933106 -1.98523,2.5298438 -1.40547,1.12437494 -3.28528,1.75683587 -1.86225,0.63246093 -4.4975,0.63246093 -2.82851,0 -5.09483,-0.52705078 -2.24875,-0.52705077 -4.58534,-1.56358392 v -4.3569531 h 0.24596 q 1.98522,1.6514257 4.58534,2.5474121 2.60012,0.8959863 4.884,0.8959863 3.23258,0 5.02456,-1.2122168 1.80954,-1.2122168 1.80954,-3.2325781 0,-1.7392675 -0.86085,-2.5649804 -0.84328,-0.825713 -2.58255,-1.28249 -1.31763,-0.351367 -2.86364,-0.579756 -1.52845,-0.228389 -3.25015,-0.579756 -3.47854,-0.737871 -5.1651,-2.512275 -1.66899,-1.791973 -1.66899,-4.655615 0,-3.285284 2.7758,-5.375918 2.7758,-2.108203 7.04491,-2.108203 2.75823,0 5.05969,0.52705 2.30145,0.527051 4.07586,1.300059 v 4.110996 h -0.24596 q -1.49331,-1.264922 -3.93531,-2.090635 -2.42444,-0.843281 -4.97185,-0.843281 -2.79337,0 -4.4975,1.159512 -1.68656,1.159511 -1.68656,2.986621 0,1.633857 0.84328,2.56498 0.84328,0.931123 2.96905,1.423037 1.12438,0.245957 3.19744,0.597324 2.07307,0.351368 3.51368,0.720303 2.91634,0.773008 4.39209,2.336592 1.47574,1.563584 1.47574,4.3745214 z"
               id="path996"
               style="fill:#ffffff" />
            <path
               d="m 177.40686,-20.923916 q 0,-1.668994 -1.00139,-2.617685 -0.98383,-0.96626 -2.52985,-0.96626 -1.61629,0 -2.63525,1.089238 -1.01897,1.07167 -1.01897,2.635254 0,1.317627 0.68517,2.336592 0.70273,1.018965 3.00419,2.406865 1.7217,-0.614892 2.60012,-1.791973 0.89598,-1.194648 0.89598,-3.092031 z m 3.40826,15.3898829 -8.39767,-8.1868549 q -0.54462,0.263525 -1.08924,0.702734 -0.54462,0.42164 -1.08924,1.159512 -0.49191,0.685166 -0.80814,1.651425 -0.31623,0.9662601 -0.31623,2.1784769 0,2.5649804 1.49331,4.1461327 1.51088,1.563584 4.26911,1.563584 1.63386,0 3.23258,-0.7905762 1.61629,-0.8081445 2.70552,-2.4244335 z m 5.28808,-10.4356049 v 1.686562 q 0,1.686562 -0.43921,3.794766 -0.43921,2.1082027 -1.49331,4.0231538 L 190.81152,0 h -4.32182 l -4.02315,-3.9353124 q -2.02036,2.4947069 -4.12856,3.49610342 -2.10821,0.98382811 -4.33939,0.98382811 -3.65422,0 -6.07865,-2.12577143 -2.40687,-2.1433398 -2.40687,-5.6043066 0,-1.616289 0.45678,-2.7933691 0.45678,-1.17708 1.07167,-2.03793 0.61489,-0.825713 1.52845,-1.546015 0.91355,-0.737871 1.84468,-1.28249 -1.93252,-1.264922 -2.79337,-2.547413 -0.84329,-1.28249 -0.84329,-3.232578 0,-1.17708 0.45678,-2.231181 0.47435,-1.07167 1.40547,-1.950088 0.87842,-0.843281 2.28389,-1.370332 1.42303,-0.527051 3.12717,-0.527051 3.03932,0 4.91914,1.546016 1.87981,1.528447 1.87981,3.882607 0,0.773008 -0.21082,1.756836 -0.21082,0.96626 -0.7203,1.739268 -0.56219,0.860849 -1.59872,1.651425 -1.03654,0.790576 -2.68796,1.352764 l 6.51786,6.359746 q 0.24596,-0.7027344 0.36893,-1.5460156 0.12298,-0.8432814 0.14055,-1.7568364 0.0351,-0.983828 0.0176,-2.196044 0,-1.212217 0,-2.055498 z"
               id="path998"
               style="fill:#ffffff" />
          </g>
        </g>
        <g
           id="g80"
           transform="matrix(3.4454947,0,0,3.4454947,346.05554,755.90234)"
           style="fill:#ffffff">
          <g
             aria-label="FORTE"
             transform="translate(0,43)"
             id="text84"
             style="font-size:40px;font-family:Boulder;-inkscape-font-specification:Boulder-Regular;fill:#ffffff">
            <path
               d="M 22.480469,-25.644531 H 7.7734375 v 8.203125 H 20.410156 v 3.4375 H 7.7734375 V 0 H 3.90625 v -29.082031 h 18.574219 z"
               id="path1001"
               style="fill:#ffffff" />
            <path
               d="m 48.105921,-25.742187 q 1.777344,1.953125 2.714844,4.785156 0.957031,2.832031 0.957031,6.425781 0,3.59375 -0.976563,6.4453125 -0.957031,2.8320313 -2.695312,4.7265625 -1.796875,1.9726563 -4.257813,2.96875 -2.441406,0.99609375 -5.585937,0.99609375 -3.066406,0 -5.585938,-1.015625 -2.5,-1.01562495 -4.257812,-2.94921875 -1.757813,-1.9335937 -2.714844,-4.7460938 -0.9375,-2.8125002 -0.9375,-6.4257812 0,-3.554687 0.9375,-6.367187 0.9375,-2.832032 2.734375,-4.84375 1.71875,-1.914063 4.257813,-2.929688 2.558593,-1.015625 5.566406,-1.015625 3.125,0 5.605469,1.035156 2.5,1.015625 4.238281,2.910157 z m -0.351563,11.210937 q 0,-5.664062 -2.539062,-8.730469 -2.539063,-3.085937 -6.933594,-3.085937 -4.433594,0 -6.972656,3.085937 -2.519531,3.066407 -2.519531,8.730469 0,5.7226562 2.578125,8.7695313 2.578125,3.0273437 6.914062,3.0273437 4.335938,0 6.894531,-3.0273437 2.578125,-3.0468751 2.578125,-8.7695313 z"
               id="path1003"
               style="fill:#ffffff" />
            <path
               d="M 81.688709,0 H 76.669178 L 66.942616,-11.5625 H 61.493397 V 0 h -3.867188 v -29.082031 h 8.144532 q 2.636718,0 4.394531,0.351562 1.757812,0.332032 3.164062,1.210938 1.582032,0.996094 2.460938,2.519531 0.898437,1.503906 0.898437,3.828125 0,3.144531 -1.582031,5.273437 -1.582031,2.109375 -4.355469,3.183594 z m -9.042968,-20.898437 q 0,-1.25 -0.449219,-2.207032 -0.429688,-0.976562 -1.445313,-1.640625 -0.839843,-0.566406 -1.992187,-0.78125 -1.152344,-0.234375 -2.714844,-0.234375 h -4.550781 v 10.976563 h 3.90625 q 1.835937,0 3.203125,-0.3125 1.367187,-0.332032 2.324219,-1.210938 0.878906,-0.820312 1.289062,-1.875 0.429688,-1.074218 0.429688,-2.714843 z"
               id="path1005"
               style="fill:#ffffff" />
            <path
               d="M 105.68837,-25.644531 H 95.297745 V 0 H 91.430557 V -25.644531 H 81.039932 v -3.4375 h 24.648438 z"
               id="path1007"
               style="fill:#ffffff" />
            <path
               d="m 129.82632,0 h -19.16016 v -29.082031 h 19.16016 v 3.4375 h -15.29297 v 7.96875 h 15.29297 v 3.4375 H 114.53335 V -3.4375 h 15.29297 z"
               id="path1009"
               style="fill:#ffffff" />
          </g>
        </g>
        <g
           id="g86"
           transform="matrix(3.125,0,0,3.125,351.74152,1005.3495)"
           style="fill:#ffffff">
          <g
             aria-label="PERSONALIZAÇÃO"
             transform="translate(0,35)"
             id="text90"
             style="font-weight:300;font-size:35.98px;font-family:HKGrotesk;-inkscape-font-specification:HKGrotesk-Light;fill:#ffffff">
            <path
               d="m 20.625254,-18.253525 q 0,1.739267 -0.614893,3.232578 -0.597324,1.475742 -1.686562,2.56498 -1.352764,1.352764 -3.197442,2.03793 -1.844677,0.6675977 -4.655615,0.6675977 H 6.9922069 V 0 H 3.5136718 v -26.159287 h 7.0976172 q 2.35416,0 3.988017,0.404072 1.633858,0.386504 2.89878,1.229786 1.49331,1.001396 2.301455,2.494707 0.825713,1.49331 0.825713,3.777197 z m -3.619082,0.08784 q 0,-1.352764 -0.474346,-2.35416 -0.474346,-1.001397 -1.440605,-1.633858 -0.843282,-0.544619 -1.93252,-0.773008 -1.07167,-0.245957 -2.723096,-0.245957 H 6.9922069 v 10.453174 h 2.933916 q 2.1082031,0 3.4258301,-0.368936 1.317627,-0.386503 2.14334,-1.212216 0.825713,-0.843282 1.159511,-1.774405 0.351368,-0.931123 0.351368,-2.090634 z"
               id="path1012"
               style="fill:#ffffff" />
            <path
               d="m 40.822588,0 h -17.23456 v -26.159287 h 17.23456 v 3.092031 H 27.066563 v 7.167891 h 13.756025 v 3.092031 H 27.066563 v 9.7153028 h 13.756025 z"
               id="path1014"
               style="fill:#ffffff" />
            <path
               d="M 66.957512,0 H 62.442444 L 53.693401,-10.400469 H 48.791829 V 0 h -3.478536 v -26.159287 h 7.326006 q 2.371729,0 3.952881,0.316231 1.581152,0.298662 2.846074,1.089238 1.423037,0.895986 2.213613,2.266318 0.808145,1.352764 0.808145,3.443399 0,2.828506 -1.423037,4.743457 -1.423037,1.897382 -3.917744,2.863642 z m -8.13415,-18.798144 q 0,-1.124375 -0.404073,-1.985225 -0.386504,-0.878418 -1.300058,-1.475742 -0.75544,-0.509482 -1.791973,-0.702734 -1.036533,-0.210821 -2.442002,-0.210821 h -4.093427 v 9.873418 H 52.3055 q 1.651426,0 2.881211,-0.281094 1.229785,-0.298662 2.090635,-1.089238 0.790576,-0.737871 1.159512,-1.686562 0.386504,-0.96626 0.386504,-2.442002 z"
               id="path1016"
               style="fill:#ffffff" />
            <path
               d="m 85.5382,-7.4665526 q 0,1.5284472 -0.720302,3.0217577 -0.702735,1.4933106 -1.985225,2.5298438 -1.405469,1.12437494 -3.285283,1.75683587 -1.862246,0.63246093 -4.4975,0.63246093 -2.828506,0 -5.094824,-0.52705078 -2.24875,-0.52705077 -4.585342,-1.56358392 v -4.3569531 h 0.245957 q 1.985225,1.6514257 4.585342,2.5474121 2.600117,0.8959863 4.884004,0.8959863 3.232578,0 5.02455,-1.2122168 1.809541,-1.2122168 1.809541,-3.2325781 0,-1.7392675 -0.860849,-2.5649804 -0.843281,-0.825713 -2.582549,-1.28249 -1.317627,-0.351367 -2.863643,-0.579756 -1.528447,-0.228389 -3.250146,-0.579756 -3.478535,-0.737871 -5.165098,-2.512275 -1.668994,-1.791973 -1.668994,-4.655615 0,-3.285284 2.775801,-5.375918 2.775801,-2.108203 7.044912,-2.108203 2.758232,0 5.059688,0.52705 2.301455,0.527051 4.075859,1.300059 v 4.110996 h -0.245957 q -1.493311,-1.264922 -3.935313,-2.090635 -2.424433,-0.843281 -4.971845,-0.843281 -2.793369,0 -4.4975,1.159512 -1.686563,1.159511 -1.686563,2.986621 0,1.633857 0.843282,2.56498 0.843281,0.931123 2.969052,1.423037 1.124375,0.245957 3.197442,0.597324 2.073066,0.351368 3.513671,0.720303 2.916348,0.773008 4.39209,2.336592 1.475742,1.563584 1.475742,4.3745214 z"
               id="path1018"
               style="fill:#ffffff" />
            <path
               d="m 105.41952,-23.155097 q 1.59872,1.756836 2.442,4.304248 0.86085,2.547412 0.86085,5.77999 0,3.2325779 -0.87842,5.7975583 -0.86085,2.5474121 -2.42443,4.2515429 -1.61629,1.7744043 -3.8299,2.67039062 -2.196048,0.89598631 -5.024554,0.89598631 -2.758233,0 -5.024551,-0.91355467 -2.24875,-0.91355466 -3.829902,-2.65282226 -1.581153,-1.7392675 -2.442002,-4.2691112 -0.843281,-2.5298438 -0.843281,-5.77999 0,-3.197442 0.843281,-5.727285 0.843281,-2.547412 2.45957,-4.356953 1.546016,-1.7217 3.829902,-2.635254 2.301455,-0.913555 5.006983,-0.913555 2.810937,0 5.042114,0.931123 2.24875,0.913555 3.81234,2.617686 z m -0.31623,10.084238 q 0,-5.094824 -2.28389,-7.853057 -2.28389,-2.7758 -6.236766,-2.7758 -3.988017,0 -6.271904,2.7758 -2.266318,2.758233 -2.266318,7.853057 0,5.147529 2.319023,7.8881931 2.319023,2.7230956 6.219199,2.7230956 3.900176,0 6.201626,-2.7230956 2.31903,-2.7406641 2.31903,-7.8881931 z"
               id="path1020"
               style="fill:#ffffff" />
            <path
               d="m 132.41379,0 h -4.30425 L 115.70628,-23.401054 V 0 h -3.25015 v -26.159287 h 5.39349 l 11.31402,21.363125 v -21.363125 h 3.25015 z"
               id="path1022"
               style="fill:#ffffff" />
            <path
               d="m 157.82746,0 h -3.70692 l -2.56498,-7.290869 H 140.24154 L 137.67656,0 h -3.53125 l 9.52206,-26.159287 h 4.63804 z m -7.34357,-10.27749 -4.58534,-12.842471 -4.60291,12.842471 z"
               id="path1024"
               style="fill:#ffffff" />
            <path
               d="m 176.51308,0 h -16.5494 v -26.159287 h 3.47854 v 23.0672558 h 13.07086 z"
               id="path1026"
               style="fill:#ffffff" />
            <path
               d="m 187.27682,0 h -10.33019 v -2.6703906 h 3.42583 V -23.488896 h -3.42583 v -2.670391 h 10.33019 v 2.670391 h -3.42583 v 20.8185054 h 3.42583 z"
               id="path1028"
               style="fill:#ffffff" />
            <path
               d="M 207.23133,0 H 186.8169 v -3.2325781 l 16.03991,-19.8346779 h -15.44259 v -3.092031 h 19.43061 v 3.144737 L 190.6468,-3.0920312 h 16.58453 z"
               id="path1030"
               style="fill:#ffffff" />
            <path
               d="m 231.1173,0 h -3.70692 L 224.8454,-7.290869 H 213.53138 L 210.9664,0 h -3.53124 l 9.52205,-26.159287 h 4.63804 z m -7.34357,-10.27749 -4.58534,-12.842471 -4.60291,12.842471 z"
               id="path1032"
               style="fill:#ffffff" />
            <path
               d="m 253.45714,-1.8973828 q -0.96626,0.4216406 -1.75684,0.7905762 -0.77301,0.36893552 -2.03793,0.77300778 -0.19325,0.0527051 -0.42164,0.14054687 -0.22839,0.0702734 -0.54462,0.12297851 0.0351,0.33379883 0.0527,0.77300781 0.0351,0.45677733 0.0351,0.86084963 0,2.8460741 -1.65142,4.356953 -1.63386,1.5108789 -4.21641,1.5108789 -0.6676,0 -1.7217,-0.1229785 -1.03653,-0.1229785 -1.82711,-0.3337988 V 4.1285644 h 0.15812 q 0.45678,0.1756836 1.24735,0.4216406 0.80815,0.245957 1.68656,0.245957 1.86225,0 2.7231,-0.7027343 0.86085,-0.7027344 0.86085,-2.2136133 0,-0.3337988 -0.0176,-0.7378711 -0.0176,-0.38650386 -0.0527,-0.73787104 -0.3338,0.0351367 -0.72031,0.0527051 -0.36893,0.0175684 -0.68516,0.0175684 -2.84608,0 -5.18267,-0.79057616 -2.31902,-0.8081445 -4.04072,-2.5122753 -1.68656,-1.6689941 -2.63525,-4.2339746 -0.9487,-2.5825488 -0.9487,-5.9908107 0,-3.232578 0.91356,-5.77999 0.91355,-2.547412 2.63525,-4.304248 1.669,-1.704131 4.02316,-2.600117 2.37173,-0.895986 5.25294,-0.895986 2.1082,0 4.19883,0.509482 2.10821,0.509482 4.67319,1.791973 v 4.128564 h -0.26353 q -2.16091,-1.809541 -4.28668,-2.635254 -2.12577,-0.825713 -4.5502,-0.825713 -1.98523,0 -3.58395,0.65003 -1.58115,0.63246 -2.8285,1.985224 -1.21222,1.317627 -1.89739,3.337988 -0.66759,2.002793 -0.66759,4.638047 0,2.758233 0.73787,4.7434572 0.75544,1.9852246 1.93252,3.2325781 1.22978,1.3000586 2.86364,1.9325195 1.65143,0.6148926 3.47853,0.6148926 2.51228,0 4.70832,-0.8608496 2.19605,-0.8608496 4.111,-2.5825488 h 0.24596 z"
               id="path1034"
               style="fill:#ffffff" />
            <path
               d="m 278.76536,0 h -3.70692 l -2.56498,-7.290869 H 261.17943 L 258.61445,0 h -3.53124 l 9.52205,-26.159287 h 4.63805 z m -7.34357,-10.27749 -4.58535,-12.842471 -4.60291,12.842471 z m 2.86364,-24.718681 q -0.19325,2.67039 -1.35277,4.023154 -1.15951,1.352763 -3.1096,1.352763 -0.94869,0 -1.75683,-0.333798 -0.80815,-0.351368 -1.52845,-1.001397 -0.82571,-0.755439 -1.40547,-1.124375 -0.56218,-0.386504 -1.24735,-0.386504 -0.91356,0 -1.37033,0.790576 -0.45678,0.790577 -0.52705,2.125772 h -2.30146 q 0.14055,-2.652822 1.3879,-4.005586 1.24736,-1.352764 3.0569,-1.352764 0.87841,0 1.68656,0.351368 0.82571,0.333798 1.56358,0.966259 0.82572,0.720303 1.45818,1.089239 0.65003,0.351367 1.22978,0.351367 0.89599,0 1.3879,-0.808145 0.50948,-0.808144 0.56219,-2.037929 z"
               id="path1036"
               style="fill:#ffffff" />
            <path
               d="m 300.40246,-23.155097 q 1.59872,1.756836 2.442,4.304248 0.86085,2.547412 0.86085,5.77999 0,3.2325779 -0.87842,5.7975583 -0.86085,2.5474121 -2.42443,4.2515429 -1.61629,1.7744043 -3.8299,2.67039062 -2.19605,0.89598631 -5.02455,0.89598631 -2.75824,0 -5.02455,-0.91355467 -2.24875,-0.91355466 -3.82991,-2.65282226 -1.58115,-1.7392675 -2.442,-4.2691112 -0.84328,-2.5298438 -0.84328,-5.77999 0,-3.197442 0.84328,-5.727285 0.84328,-2.547412 2.45957,-4.356953 1.54602,-1.7217 3.8299,-2.635254 2.30146,-0.913555 5.00699,-0.913555 2.81093,0 5.04212,0.931123 2.24875,0.913555 3.81233,2.617686 z m -0.31623,10.084238 q 0,-5.094824 -2.28389,-7.853057 -2.28388,-2.7758 -6.23677,-2.7758 -3.98801,0 -6.2719,2.7758 -2.26632,2.758233 -2.26632,7.853057 0,5.147529 2.31903,7.8881931 2.31902,2.7230956 6.21919,2.7230956 3.90018,0 6.20164,-2.7230956 2.31902,-2.7406641 2.31902,-7.8881931 z"
               id="path1038"
               style="fill:#ffffff" />
          </g>
        </g>
      </g>
    </g>
  </g>
</svg>
