<?xml version="1.0" encoding="UTF-8" standalone="no"?>
<!-- Created with Inkscape (http://www.inkscape.org/) -->

<svg
   width="171"
   height="200.00002"
   viewBox="0 0 2.3749997 2.777778"
   version="1.1"
   id="svg1934"
   inkscape:export-filename="bitmap.svg"
   inkscape:export-xdpi="96"
   inkscape:export-ydpi="96"
   xmlns:inkscape="http://www.inkscape.org/namespaces/inkscape"
   xmlns:sodipodi="http://sodipodi.sourceforge.net/DTD/sodipodi-0.dtd"
   xmlns="http://www.w3.org/2000/svg"
   xmlns:svg="http://www.w3.org/2000/svg">
  <sodipodi:namedview
     id="namedview1936"
     pagecolor="#ffffff"
     bordercolor="#000000"
     borderopacity="0.25"
     inkscape:showpageshadow="2"
     inkscape:pageopacity="0.0"
     inkscape:pagecheckerboard="0"
     inkscape:deskcolor="#d1d1d1"
     inkscape:document-units="mm"
     showgrid="false" />
  <defs
     id="defs1931" />
  <g
     inkscape:label="Camada 1"
     inkscape:groupmode="layer"
     id="layer1">
    <g
       id="g952"
       transform="matrix(0.0075092,0,0,-0.0075092,-0.4564227,4.7720878)"
       style="fill:#ffffff">
      <path
         d="m 105.2566,609.2351 c -2.5523,0 -4.7214,-0.8926 -6.5069,-2.6796 -1.787,-1.785 -2.6779,-3.9532 -2.6779,-6.5069 v -58.3447 c 0,-2.55 0.8909,-4.7208 2.6779,-6.5064 1.7855,-1.7869 3.9546,-2.6793 6.5069,-2.6793 2.5501,0 4.7325,0.8924 6.5472,2.6793 1.8153,1.7856 2.7227,3.9564 2.7227,6.5064 v 58.3447 c 0,2.5537 -0.9074,4.7219 -2.7227,6.5069 -1.8147,1.787 -3.9971,2.6796 -6.5472,2.6796"
         style="fill:#ffffff;fill-opacity:1;fill-rule:nonzero;stroke:none"
         id="path954" />
      <path
         d="m 133.9186,511.3395 c -8.0524,0 -13.5522,2.5245 -16.5013,7.5705 -3.5708,-1.9259 -7.4546,-2.8922 -11.6499,-2.8922 -7.0891,0 -13.1133,2.4947 -18.0742,7.4848 -4.9632,4.9876 -7.4427,10.9988 -7.4427,18.0301 v 58.1768 c 0,7.0878 2.4942,13.1117 7.4838,18.0737 4.9909,4.9618 11.0004,7.4413 18.0331,7.4413 7.0866,0 13.0975,-2.5081 18.0304,-7.5269 4.9328,-5.0184 7.3995,-11.0134 7.3995,-17.9881 v -58.1768 c 0,-4.5921 -1.1361,-8.8441 -3.4027,-12.7568 1.4162,-1.6449 3.458,-2.4664 6.124,-2.4664 z m -59.1993,-3.3908 h 65.4091 v 121.473 H 74.7193 Z"
         style="fill:#ffffff;fill-opacity:1;fill-rule:nonzero;stroke:none"
         id="path956" />
      <path
         d="m 172.5265,515.7479 c -7.0884,0 -13.0992,2.4678 -18.0321,7.401 -4.9331,4.9325 -7.3993,10.9134 -7.3993,17.9447 v 82.4151 H 162.83 v -82.2439 c 0,-2.5523 0.9054,-4.7197 2.7212,-6.5066 1.8145,-1.787 3.9969,-2.6796 6.5489,-2.6796 2.5523,0 4.7197,0.8926 6.5067,2.6796 1.7869,1.7869 2.6796,3.9543 2.6796,6.5066 v 82.2439 h 16.757 v -82.4151 c 0,-7.1427 -2.4976,-13.1539 -7.4869,-18.03 -4.9895,-4.8785 -11.0001,-7.3157 -18.03,-7.3157"
         style="fill:#ffffff;fill-opacity:1;fill-rule:nonzero;stroke:none"
         id="path958" />
      <path
         d="m 258.0599,607.7903 h -29.683 v -29.0872 h 21.6868 V 562.542 h -21.6868 v -29.0878 h 29.683 v -16.1611 h -45.7585 v 106.6555 h 45.7585 z m -52.5237,-99.8414 h 67.5181 V 629.422 h -67.5181 z"
         style="fill:#ffffff;fill-opacity:1;fill-rule:nonzero;stroke:none"
         id="path960" />
      <path
         d="m 97.6005,411.7255 h 6.7196 c 5.4433,0 9.214,2.8054 11.3128,8.4197 0.7355,1.9273 1.1038,4.1386 1.1038,6.6339 0,5.9531 -1.1347,10.2921 -3.4016,13.0133 -2.0404,2.4945 -5.0454,3.7421 -9.015,3.7421 h -6.7196 z m 0,47.2036 h 6.7196 c 4.9881,0 8.3341,2.437 10.0372,7.3151 0.623,1.8131 0.9357,4.0519 0.9357,6.7184 0,4.4226 -1.0778,7.7689 -3.2344,10.0352 -1.9853,2.0971 -4.5632,3.149 -7.7385,3.149 h -6.7196 z m -17.3491,-63.11 v 106.657 h 24.0687 c 6.3487,0 12.079,-1.6736 17.1802,-5.0182 4.3662,-2.836 7.4846,-7.2286 9.3569,-13.1833 1.019,-3.1763 1.5304,-6.9475 1.5304,-11.312 0,-7.143 -1.9009,-12.873 -5.6993,-17.1796 -1.5857,-1.8162 -3.458,-3.206 -5.6115,-4.1681 3.5711,-1.3606 6.6041,-4.055 9.0995,-8.0804 1.6432,-2.7216 2.8633,-6.2385 3.6578,-10.5469 0.3957,-2.2102 0.5959,-4.678 0.5959,-7.3996 0,-6.7473 -1.2768,-12.4744 -3.8277,-17.181 -1.9854,-3.6851 -4.7936,-6.6328 -8.4209,-8.8441 -4.0824,-2.4974 -8.1371,-3.7438 -12.1617,-3.7438 z"
         style="fill:#ffffff;fill-opacity:1;fill-rule:nonzero;stroke:none"
         id="path962" />
      <path
         d="m 174.147,485.9765 h -9.6962 v -34.1059 h 9.6962 c 2.5506,0 4.72,0.9059 6.507,2.7215 1.7838,1.8125 2.6781,3.9969 2.6781,6.5486 v 15.5653 c 0,6.1793 -3.0625,9.2705 -9.1851,9.2705"
         style="fill:#ffffff;fill-opacity:1;fill-rule:nonzero;stroke:none"
         id="path964" />
      <path
         d="m 184.9133,395.82 -9.7472,40.1445 h -1.4448 -9.2702 V 395.82 h -16.0758 v 106.5696 h 25.346 c 8.9589,0 15.535,-2.465 19.7333,-7.3975 3.6837,-4.3115 5.5285,-10.3227 5.5285,-18.0307 v -15.48 c 0,-7.5429 -2.865,-13.922 -8.5919,-19.1361 L 202.2973,395.82 Z M 140.127,385.5889 h 65.4092 v 122.36 H 140.127 Z"
         style="fill:#ffffff;fill-opacity:1;fill-rule:nonzero;stroke:none"
         id="path966" />
      <path
         d="m 244.3139,477.9805 -5.9545,-42.0157 h 11.9092 z m -8.4439,-57.6649 -3.907,-24.495 h -16.736 l 18.1171,106.5696 h 22.1125 l 17.8582,-106.5696 h -16.9015 l -3.7608,24.495 z"
         style="fill:#ffffff;fill-opacity:1;fill-rule:nonzero;stroke:none"
         id="path968" />
      <path
         d="M 135.7055,273.46 H 118.4386 L 96.3261,341.7579 V 273.46 H 80.2502 v 106.6558 h 18.0479 l 21.3316,-71.68 v 71.68 h 16.0758 z m -63.079,-3.7968 H 140.144 V 385.5889 H 72.6265 Z"
         style="fill:#ffffff;fill-opacity:1;fill-rule:nonzero;stroke:none"
         id="path970" />
      <path
         d="m 166.153,290.2518 h 9.6962 c 2.5506,0 4.7038,0.9202 6.4622,2.765 1.756,1.8402 2.6373,4.0096 2.6373,6.5052 v 55.7957 c 0,2.5506 -0.8943,4.7328 -2.6779,6.5472 -1.7872,1.8156 -3.9274,2.7233 -6.4216,2.7233 h -9.6962 z m 34.4467,9.6106 c 0,-7.0313 -2.4682,-13.0422 -7.401,-18.0317 -4.9329,-4.991 -10.8873,-7.4852 -17.8608,-7.4852 h -25.2607 v 106.657 h 25.2607 c 7.0296,0 12.9977,-2.4965 17.9047,-7.4846 4.902,-4.9896 7.3571,-10.9718 7.3571,-17.9468 z"
         style="fill:#ffffff;fill-opacity:1;fill-rule:nonzero;stroke:none"
         id="path972" />
      <path
         d="m 237.1521,367.613 c -2.5517,0 -4.7344,-0.8926 -6.5506,-2.679 -1.8141,-1.7858 -2.7195,-3.9538 -2.7195,-6.5069 v -58.345 c 0,-2.5503 0.9054,-4.7214 2.7195,-6.5066 1.8162,-1.7867 3.9989,-2.6796 6.5506,-2.6796 2.5506,0 4.72,0.8929 6.5067,2.6796 1.7864,1.7852 2.6781,3.9563 2.6781,6.5066 v 58.345 c 0,2.5531 -0.8917,4.7211 -2.6781,6.5069 -1.7867,1.7864 -3.9561,2.679 -6.5067,2.679"
         style="fill:#ffffff;fill-opacity:1;fill-rule:nonzero;stroke:none"
         id="path974" />
      <path
         d="m 263.0937,299.9117 c 0,-7.0894 -2.4954,-13.1122 -7.4852,-18.0742 -4.9907,-4.9618 -11.0013,-7.4424 -18.032,-7.4424 -7.0875,0 -13.0984,2.4965 -18.0315,7.486 -4.9328,4.9882 -7.3981,10.9993 -7.3981,18.0306 v 58.1752 c 0,7.0894 2.4939,13.1134 7.4834,18.0737 4.9896,4.9618 10.9718,7.4429 17.9462,7.4429 7.0883,0 13.1125,-2.4953 18.0754,-7.4832 4.9592,-4.9926 7.4418,-11.0038 7.4418,-18.0334 z m -57.5578,-30.2485 h 67.5179 v 115.9257 h -67.5179 z"
         style="fill:#ffffff;fill-opacity:1;fill-rule:nonzero;stroke:none"
         id="path976" />
      <path
         d="m 322.2482,612.6228 c 0.0102,-5.8737 1.9117,-8.9039 8.8268,-8.8923 l 3.8852,0.007 c 5.8753,0.009 8.7156,2.0044 8.7049,7.3114 l -0.0114,7.2961 -21.4154,-0.036 0.01,-5.6863 z m -31.4558,-2.2351 c 0.0102,-5.3992 2.857,-7.8585 9.0156,-7.8483 l 5.8762,0.0102 c 7.3905,0.0127 9.8487,2.9548 9.8385,9.3036 l -0.0113,6.4442 -24.7315,-0.0433 z m 59.6016,0.4844 c 0.0189,-10.3295 -4.9029,-14.4119 -14.6614,-14.4298 l -3.1286,-0.006 c -7.0109,-0.0114 -11.3729,1.9709 -13.1825,7.7473 -1.7904,-6.4471 -6.9027,-8.918 -14.1993,-8.9311 l -5.5894,-0.0105 c -9.9502,-0.017 -15.5497,4.8062 -15.567,15.1339 l -0.0275,15.2569 66.3293,0.1143 0.0264,-14.8754 z"
         style="fill:#ffffff;fill-opacity:1;fill-rule:nonzero;stroke:none"
         id="path978" />
      <path
         d="m 303.8278,580.0895 0.0261,-14.7812 38.2683,7.5532 z m -6.3499,0.9377 -13.3656,2.5359 -0.0116,6.8216 66.3505,-12.5821 0.0193,-10.7074 -66.3063,-12.8123 -0.0142,7.3908 13.3563,2.5824 z"
         style="fill:#ffffff;fill-opacity:1;fill-rule:nonzero;stroke:none"
         id="path980" />
      <path
         d="m 319.2554,535.678 c 0.01,-5.8742 1.9114,-9.3773 9.1134,-9.364 l 6.3487,0.01 c 5.9692,0.0102 9.0927,2.1954 9.0819,7.6906 l -0.0113,7.2023 -24.5435,-0.0431 z m 31.2726,-1.8417 c 0.019,-10.4235 -5.2789,-14.7917 -15.135,-14.809 l -5.4011,-0.008 c -7.2964,-0.013 -11.848,2.5393 -13.6599,8.221 -1.7892,-6.0678 -6.7124,-8.3517 -13.8189,-8.3644 l -10.328,-0.0176 c -2.9379,-0.006 -5.6855,-0.1029 -7.9577,-1.3405 l -0.0131,7.4866 c 1.8939,0.8566 3.5983,1.239 8.0518,1.2464 l 10.4239,0.0173 c 7.4857,0.0141 9.8484,3.5229 9.8365,9.6817 l -0.009,5.2126 -28.3326,-0.0493 -0.013,7.3908 66.3296,0.1159 0.026,-14.783 z"
         style="fill:#ffffff;fill-opacity:1;fill-rule:nonzero;stroke:none"
         id="path982" />
      <path
         d="m 319.3211,498.3452 c 0.01,-5.8751 1.9112,-9.3779 9.112,-9.3649 l 6.349,0.0105 c 5.9692,0.0102 9.0933,2.1952 9.0834,7.6907 l -0.0116,7.2023 -24.5433,-0.0434 z m 31.2713,-1.842 c 0.0187,-10.4235 -5.2793,-14.7915 -15.1348,-14.8087 l -5.4011,-0.009 c -7.2969,-0.0128 -11.8485,2.539 -13.659,8.221 -1.7898,-6.0673 -6.7122,-8.3514 -13.8192,-8.3644 l -10.3277,-0.0173 c -2.9376,-0.006 -5.6855,-0.1029 -7.9575,-1.3403 l -0.0144,7.4861 c 1.8938,0.8566 3.598,1.239 8.0529,1.2464 l 10.4224,0.0172 c 7.4863,0.0148 9.8502,3.5229 9.8383,9.6818 l -0.009,5.2129 -28.3325,-0.0493 -0.0131,7.3907 66.3296,0.116 0.0247,-14.783 z"
         style="fill:#ffffff;fill-opacity:1;fill-rule:nonzero;stroke:none"
         id="path984" />
      <path
         d="m 321.2994,450.3076 -6.6333,-0.0117 -0.0284,16.2049 -23.5941,-0.042 0.0348,-19.8986 -6.7286,-0.0117 -0.0465,27.2892 66.3285,0.1159 0.0476,-27.2908 -6.7269,-0.0114 -0.0349,19.8998 -22.6474,-0.0391 z"
         style="fill:#ffffff;fill-opacity:1;fill-rule:nonzero;stroke:none"
         id="path986" />
      <path
         d="m 350.7046,428.75353 -66.3295,-0.1145 -0.0128,7.3907 66.3296,0.1148 z"
         style="fill:#ffffff;fill-opacity:1;fill-rule:nonzero;stroke:none"
         id="path988" />
      <path
         d="m 319.4708,404.53406 c 0.0102,-5.8754 1.9117,-9.3778 9.1137,-9.3648 l 6.3484,0.0102 c 5.9695,0.0105 9.0925,2.1954 9.0825,7.6907 l -0.0119,7.2025 -24.5429,-0.0436 z m 31.2712,-1.8422 c 0.0205,-10.4236 -5.2775,-14.7915 -15.1336,-14.8088 l -5.4008,-0.009 c -7.2964,-0.0127 -11.8485,2.5387 -13.6599,8.2208 -1.7895,-6.0673 -6.7121,-8.3512 -13.8194,-8.3625 l -10.3278,-0.019 c -2.9378,-0.006 -5.6849,-0.1032 -7.9574,-1.3405 l -0.0131,7.486 c 1.893,0.8569 3.5986,1.239 8.0516,1.2464 l 10.4238,0.0173 c 7.486,0.0147 9.8487,3.5229 9.8365,9.682 l -0.008,5.2129 -28.332,-0.0496 -0.0136,7.3911 66.3302,0.1156 0.024,-14.7829 z"
         style="fill:#ffffff;fill-opacity:1;fill-rule:nonzero;stroke:none"
         id="path990" />
      <path
         d="m 304.179,371.62666 0.0255,-14.7813 38.2683,7.5527 z m -6.3504,0.9374 -13.3657,2.5362 -0.0116,6.821 66.3497,-12.5816 0.019,-10.7079 -66.3063,-12.812 -0.0131,7.3908 13.3569,2.5826 z"
         style="fill:#ffffff;fill-opacity:1;fill-rule:nonzero;stroke:none"
         id="path992" />
      <path
         d="m 334.9837,311.41826 -1.7997,-0.003 -0.0128,7.011 2.1796,0.003 c 5.9686,0.0119 9.4714,2.2912 9.4629,7.5968 -0.0108,5.3068 -3.5204,7.5745 -9.3955,7.5643 -14.877,-0.0258 -16.2578,-22.2953 -34.9262,-22.3268 -10.0437,-0.019 -16.5912,4.8025 -16.6082,14.942 -0.0178,10.1384 6.5137,14.887 16.5563,14.9048 l 3.7908,0.006 0.0113,-6.9168 -4.1686,-0.007 c -5.9709,-0.009 -9.472,-2.4795 -9.4618,-7.7865 0.009,-5.3064 3.5187,-7.7612 9.4893,-7.7516 14.7813,0.0264 16.1643,22.1998 34.8307,22.233 10.2336,0.0178 16.5915,-4.7095 16.6085,-14.6597 0.0176,-10.044 -6.5123,-14.7917 -16.5566,-14.8087"
         style="fill:#ffffff;fill-opacity:1;fill-rule:nonzero;stroke:none"
         id="path994" />
      <g
         aria-label="2024"
         transform="scale(0.88079227,-1.1353415)"
         id="text998"
         style="font-weight:bold;font-size:32.8595px;font-family:Oswald;-inkscape-font-specification:Oswald-Bold;stroke-width:0.762243">
        <path
           d="m 342.98801,-238.14403 h -18.75623 v -3.94699 q 2.14999,-1.55633 4.29998,-3.3052 2.16603,-1.74887 3.46565,-3.0164 1.94141,-1.87723 2.75968,-3.27312 0.81828,-1.39588 0.81828,-2.75968 0,-1.63656 -1.05895,-2.51902 -1.0429,-0.8985 -3.0164,-0.8985 -1.47611,0 -3.11266,0.6097 -1.62052,0.6097 -3.0164,1.55633 h -0.51343 v -5.31078 q 1.13917,-0.49739 3.35333,-0.99477 2.23022,-0.49739 4.46043,-0.49739 4.49251,0 6.85107,1.89327 2.35857,1.87723 2.35857,5.32684 0,2.2623 -1.13917,4.29997 -1.12313,2.03767 -3.44961,4.20371 -1.46006,1.34775 -2.93617,2.48692 -1.47611,1.12313 -2.10186,1.57238 h 10.73389 z"
           id="path3473" />
        <path
           d="m 361.71093,-250.09731 q 0,3.0164 -0.54552,5.40705 -0.54552,2.37462 -1.70074,3.89886 -1.1873,1.55633 -3.04849,2.35857 -1.86118,0.78619 -4.58877,0.78619 -2.67946,0 -4.57274,-0.80224 -1.89327,-0.80223 -3.06453,-2.37461 -1.18731,-1.57238 -1.71678,-3.89886 -0.52947,-2.34252 -0.52947,-5.35892 0,-3.11267 0.54551,-5.40705 0.54552,-2.29439 1.73283,-3.88282 1.18731,-1.57238 3.08058,-2.35856 1.89327,-0.78619 4.5246,-0.78619 2.74364,0 4.60482,0.81827 1.86118,0.80224 3.04849,2.40671 1.17126,1.57237 1.70073,3.88281 0.52948,2.29439 0.52948,5.31079 z m -6.20929,0 q 0,-4.33207 -0.85037,-6.16116 -0.85037,-1.84514 -2.82386,-1.84514 -1.9735,0 -2.82387,1.84514 -0.85036,1.82909 -0.85036,6.19325 0,4.25184 0.86641,6.12906 0.86641,1.87723 2.80782,1.87723 1.9414,0 2.80782,-1.87723 0.86641,-1.87722 0.86641,-6.16115 z"
           id="path3475" />
        <path
           d="m 380.89735,-238.14403 h -18.75623 v -3.94699 q 2.14998,-1.55633 4.29997,-3.3052 2.16603,-1.74887 3.46565,-3.0164 1.94141,-1.87723 2.75969,-3.27312 0.81827,-1.39588 0.81827,-2.75968 0,-1.63656 -1.05894,-2.51902 -1.04291,-0.8985 -3.0164,-0.8985 -1.47611,0 -3.11267,0.6097 -1.62051,0.6097 -3.0164,1.55633 h -0.51343 v -5.31078 q 1.13917,-0.49739 3.35334,-0.99477 2.23021,-0.49739 4.46042,-0.49739 4.49251,0 6.85108,1.89327 2.35856,1.87723 2.35856,5.32684 0,2.2623 -1.13917,4.29997 -1.12313,2.03767 -3.4496,4.20371 -1.46007,1.34775 -2.93618,2.48692 -1.47611,1.12313 -2.10185,1.57238 h 10.73389 z"
           id="path3477" />
        <path
           d="m 400.11743,-243.64735 h -3.25707 v 5.5675 h -5.88839 v -5.5675 h -11.56822 v -4.5246 l 11.18314,-13.8626 h 6.27347 v 14.02305 h 3.25707 z m -9.14546,-4.36415 v -8.63204 l -6.94735,8.63204 z"
           id="path3479" />
      </g>
    </g>
  </g>
</svg>
